<?xml version="1.0" encoding="UTF-8"?>
<svg version="1.1" viewBox="0 0 1328 1600" width="1280" height="1280" xmlns="http://www.w3.org/2000/svg">
<path transform="translate(0)" d="m0 0h1328v1600h-1328v-1600z" fill="#FBFDFE"/>
<path transform="translate(814,157)" d="m0 0c3.05 1.15 5.91 2.59 8.81 4.06 6.61 3.25 13.3 6.31 20.1 9.12 5.33 2.2 10.6 4.46 15.8 6.94 5.39 2.53 10.9 4.64 16.4 6.7 7.85 2.89 15.5 6.04 23.1 9.66 7.22 3.46 14.5 6.38 22.1 9.03 3.59 1.27 7.03 2.59 10.4 4.35 5.17 2.67 10.6 4.7 16 6.82 11.4 4.45 22.6 9.11 33.8 14 9.53 4.17 19.1 8.24 28.7 12.1 6.03 2.45 12 4.97 18 7.54l2.59 1.12c0.871 0.375 1.74 0.75 2.64 1.14 17.9 7.71 35.9 15.2 53.9 22.6 8.35 3.45 16.7 6.91 25 10.4 1.08 0.458 2.15 0.915 3.26 1.39 2.18 0.928 4.36 1.86 6.54 2.79 6.49 2.76 13 5.36 19.6 7.87 5.17 2.01 10.3 4.18 15.4 6.36 2.27 0.964 4.53 1.93 6.8 2.89 1.15 0.49 2.3 0.981 3.49 1.49 3.53 1.5 7.07 2.99 10.6 4.48 1.15 0.485 2.3 0.969 3.48 1.47 2.18 0.919 4.36 1.84 6.55 2.75 4.96 2.09 9.89 4.23 14.8 6.48 3.58 1.64 7.15 3.16 10.9 4.5 7.33 2.76 14.5 5.92 21.6 9.08 4.41 1.94 8.81 3.85 13.3 5.54 1.04 0.391 1.04 0.391 2.1 0.789 1.8 0.667 3.62 1.31 5.43 1.96 3.21 1.68 4.23 3.21 5.77 6.45-1.79 1.67-3.58 3.34-5.38 5-0.508 0.477-1.02 0.954-1.54 1.45-3.86 3.55-3.86 3.55-6.09 3.55-0.33 0.99-0.66 1.98-1 3-1.36 1.37-1.36 1.37-3.19 2.88-4.05 3.43-7.94 7-11.8 10.6-4.25 3.97-8.53 7.89-12.9 11.7-3.28 2.88-6.48 5.85-9.68 8.82-2.46 2.27-4.95 4.47-7.54 6.59-2.36 2-4.27 3.9-6.22 6.28-2.36 2.78-4.77 5.21-7.56 7.56-3.79 3.21-7.01 6.76-10.3 10.5-2.16 2.47-4.45 4.76-6.8 7.05-5.58 5.48-10.9 11.1-16 17-0.861 0.984-1.72 1.97-2.61 2.98-7.6 8.71-14.7 17.7-21.8 26.9-1.46 1.9-2.93 3.79-4.41 5.68-15.2 19.4-28.3 40.4-41.2 61.4-0.687 1.12-1.37 2.24-2.08 3.4-2.34 3.85-4.63 7.72-6.92 11.6-0.527 0.888-1.05 1.78-1.6 2.69-9.89 16.7-19 33.7-27.8 51.1-1.3 2.58-2.62 5.15-3.94 7.71-9.75 19.1-18.9 38.6-26.7 58.5-0.618 1.54-1.24 3.08-1.86 4.62-6.16 15.4-11.9 31-17.3 46.6-1.03 2.95-2.06 5.9-3.1 8.84-4.03 11.5-7.63 23.1-10.7 34.9-0.624 2.31-1.25 4.63-1.88 6.94-2.23 8.41-4.4 16.8-6.58 25.3-1.36 5.25-2.73 10.5-4.17 15.7-2.78 10.1-4.65 20.4-6.32 30.8-0.602 3.7-1.24 7.37-2.12 11-1.22 5.14-1.77 10.4-2.44 15.6-0.544 4.04-1.24 8.02-2 12-1.99 10.6-3.43 21.1-4.22 31.9-0.281 2.83-0.281 2.83-0.781 5.22-0.896 4.69-0.957 9.46-1.22 14.2-0.281 3.4-0.281 3.4-1.28 6.4v3.31c0 3.69 0 3.69-0.5 6.5-0.442 2.82-0.534 5.29-0.5 8.12 0.0493 4.13-0.395 7.98-1 12.1-0.021 1.44-0.0206 2.88 0 4.31 0 3.69 0 3.69-1 5.69-0.0748 2.71-0.0912 5.4-0.0625 8.11 0.00379 0.807 0.00757 1.61 0.0115 2.44 0.0164 3.46 0.0444 6.91 0.0715 10.4 0.0181 2.52 0.0302 5.04 0.042 7.56 0.0083 0.777 0.0166 1.55 0.0251 2.36 0.0174 3.87-0.258 7.38-1.09 11.2-0.077 1.69-0.108 3.39-0.0977 5.08 0.00322 0.931 0.00645 1.86 0.00977 2.82 0.00838 0.96 0.0168 1.92 0.0254 2.91 0.00677 1.47 0.00677 1.47 0.0137 2.97 0.0117 2.41 0.0282 4.81 0.0488 7.22-7.93-1.62-13.5-10.1-17.9-16.4-0.787-1.2-0.787-1.2-1.59-2.43-1.39-2.15-1.39-2.15-3.16-3.79-1.31-1.34-1.31-1.34-1.31-3.34h-2c-1.67-1.81-1.67-1.81-3.75-4.44-0.804-1.01-1.61-2.02-2.44-3.06-0.447-0.562-0.895-1.12-1.36-1.7-1.54-1.91-3.12-3.78-4.71-5.65-8.13-9.62-15.4-19.6-22.3-30.1-2.4-3.53-4.95-6.95-7.52-10.4-2.27-3.28-4.3-6.68-6.33-10.1-1.39-2.34-2.8-4.65-4.23-6.97-31.7-51.7-54-108-70.3-166-0.966-3.45-1.95-6.9-2.94-10.4-12.6-44.8-21.8-91.9-24.8-138-0.24-3.56-0.563-7.11-0.904-10.7-3.8-40-2.67-80.3-2.39-120-4.4-0.039-8.28 0.0998-12.6 1.14-1.03 0.245-2.06 0.49-3.12 0.742-1.09 0.267-2.19 0.534-3.31 0.809-2.36 0.56-4.71 1.12-7.07 1.68-1.17 0.279-2.35 0.558-3.56 0.846-4.76 1.11-9.53 2.15-14.3 3.17-6.53 1.4-13.1 2.85-19.6 4.36-18.4 4.28-36.8 8.19-55.3 11.9-13.9 2.79-27.7 5.77-41.4 9.11-9.9 2.39-19.8 4.5-29.8 6.38-10.1 1.89-20 3.97-30 6.34-7.49 1.77-15 3.41-22.5 5-1.03 0.218-2.07 0.437-3.13 0.661-5.2 1.1-10.4 2.19-15.6 3.28-9.55 2-19 4.12-28.4 6.72-5.17 1.38-10.4 2.46-15.6 3.51-1.49 0.306-1.49 0.306-3.01 0.617-4.66 0.954-9.33 1.89-14 2.82-8.8 1.76-17.6 3.62-26.2 5.88-11.4 2.92-22.9 4.95-34.5 6.95-0.789 0.137-1.58 0.273-2.39 0.414-1.49 0.255-2.97 0.506-4.46 0.752-3.32 0.335-3.32 0.335-6.06 1.95-1.47 10.5-0.823 20.7 0.238 31.2 0.473 4.76 0.801 9.41 0.708 14.2-0.0879 9.25 1.07 18.4 1.99 27.6 0.185 1.88 0.369 3.75 0.553 5.63 0.265 2.71 0.532 5.42 0.802 8.12 0.536 5.37 1.04 10.7 1.46 16.1 0.195 2.05 0.195 2.05 0.748 3.98 0.622 2.61 0.728 5.1 0.867 7.78 4.52 67.5 21.1 135 40.6 199 0.239 0.794 0.478 1.59 0.724 2.4 5.51 18.3 11.4 36.3 18.3 54.1 1.42 3.75 2.72 7.53 4.02 11.3 3.21 9.25 7.04 18.2 10.9 27.2 0.605 1.4 0.605 1.4 1.22 2.83 9.77 22.6 19.7 45.1 31.5 66.7 1.45 2.68 2.88 5.37 4.3 8.06 7.86 14.8 16.3 29.1 25 43.4 1.05 1.73 2.1 3.46 3.15 5.19 6.15 10.1 12.4 20.2 19 30 4.57 6.85 8.12 12.5 8.81 20.8-5.41-1.32-9.26-3.93-13-8v-2c-0.99-0.33-1.98-0.66-3-1-1.76-1.97-1.76-1.97-3.69-4.5-2.61-3.36-5.26-6.61-8.12-9.75-3.9-4.33-7.48-8.86-11.1-13.5-2.8-3.6-5.65-7.15-8.57-10.7-8.35-10.1-16.2-20.8-23.6-31.6-0.587-0.86-1.17-1.72-1.78-2.61-10.4-15.5-20.2-31.4-29.5-47.5-1.11-1.92-2.23-3.84-3.35-5.75-14.5-24.9-26.9-51-37.1-77.9-1.11-2.92-2.24-5.83-3.38-8.73-7.78-19.9-14.3-40.1-20.3-60.7-0.495-1.69-0.995-3.38-1.49-5.07-1.75-5.92-3.44-11.9-5.06-17.8l-0.875-3.21c-3.27-12.1-6.52-24.1-8.32-36.6-0.617-3.74-1.64-7.33-2.66-11-2.55-9.24-4.08-18.6-5.64-28.1-0.305-1.82-0.61-3.65-0.915-5.47-0.741-4.44-1.47-8.88-2.2-13.3-0.353-2.16-0.708-4.33-1.06-6.49-1.88-11.5-3.56-23-4.61-34.6-0.539-5.87-1.33-11.7-2.22-17.5-1.34-8.89-2.19-17.8-2.85-26.8-0.354-4.72-0.829-9.32-1.65-14v-7l-1-2c-0.059-3.63-0.0206-7.25 0.0391-10.9 0.171-4.19 0.171-4.19-1.04-8.12-0.0589-3.42-0.0207-6.82 0.0391-10.2 0.148-4.01 0.148-4.01-1.04-7.77-0.227-2.31-0.394-4.62-0.535-6.94-0.065-1.06-0.065-1.06-0.131-2.13-0.52-8.64-0.949-17.3-1.33-25.9-0.032-0.699-0.0639-1.4-0.0969-2.12-0.191-4.27-0.316-8.54-0.403-12.8-0.0639-1.6-0.0639-1.6-0.129-3.24-0.0249-2.74 0.0172-5.15 0.629-7.82 3.56-3.47 7.21-4.59 12-5.62 3.02-0.669 5.94-1.35 8.88-2.34 3.66-1.21 7.37-2.06 11.1-2.91 6.46-1.48 12.8-3.18 19.2-5.05 5.63-1.58 11.3-2.96 17-4.32 1.22-0.298 1.22-0.298 2.47-0.602 0.723-0.174 1.45-0.347 2.19-0.526 2.47-0.706 4.79-1.66 7.18-2.62 1.49-0.454 2.98-0.878 4.49-1.28 1.44-0.385 1.44-0.385 2.91-0.777 1.19-0.312 2.38-0.624 3.6-0.946 1.57-0.413 3.13-0.826 4.7-1.24 4.54-1.2 9.09-2.39 13.6-3.58 2.86-0.747 5.71-1.5 8.57-2.24 1.84-0.481 3.68-0.962 5.51-1.44 1.26-0.331 1.26-0.331 2.55-0.669 3.83-1 7.65-1.99 11.5-2.94 2.58-0.649 4.99-1.34 7.47-2.26 5.11-1.76 10.3-2.92 15.6-4.09 3.66-0.827 7.27-1.75 10.9-2.85 7.11-2.17 14.3-4.08 21.5-6.02 2.45-0.662 4.9-1.33 7.34-1.99 8.01-2.17 16-4.26 24.1-6 2.68-0.678 5.12-1.63 7.68-2.68 1.78-0.315 3.58-0.583 5.38-0.812 5.32-0.831 10.1-2.29 15.2-4.09 7.02-2.42 14.2-4.13 21.4-5.87 6.48-1.57 12.9-3.31 19.3-5.16 6-1.72 12-3.36 18.1-5 2.1-0.571 4.2-1.14 6.3-1.72 6.62-1.8 13.2-3.59 19.9-5.36 8.01-2.13 16-4.31 24-6.5 2.78-0.761 5.56-1.52 8.34-2.28 0.682-0.187 1.36-0.373 2.07-0.565 3.32-0.907 6.65-1.81 9.98-2.68 8.27-2.18 16.5-4.51 24.7-6.97 16.1-4.81 32.2-9.35 48.5-13.7 3.24-0.881 6.49-1.77 9.73-2.65 2.09-0.568 4.18-1.14 6.27-1.7 0.954-0.261 1.91-0.523 2.89-0.792 16.9-4.57 16.9-4.57 23.1-4.11 2 2 2 2 2.01 5.15-0.107 1.25-0.214 2.5-0.324 3.79-0.149 1.87-0.149 1.87-0.301 3.78-0.387 3.29-0.387 3.29-1.39 6.29-0.0438 1.67-0.0397 3.33 0 5 0.0741 3.11-0.00225 5.01-1 8-0.0687 3.29 0.00253 6.58 0.0625 9.87-0.0625 3.13-0.0625 3.13-0.562 4.91-0.675 3-0.593 5.81-0.562 8.89 0.00773 1.29 0.0155 2.57 0.0234 3.9 0.0124 1.35 0.0255 2.71 0.0391 4.06 0.0266 2.66 0.0465 5.32 0.0625 7.98 0.0116 1.18 0.0232 2.36 0.0352 3.57-0.0977 2.83-0.0977 2.83-1.1 4.83-0.0993 2.97-0.14 5.91-0.133 8.88-9.57e-4 0.88-0.00191 1.76-0.0029 2.67-6.81e-4 1.86 0.00117 3.73 0.00534 5.59 0.00535 2.86 5.26e-5 5.71-0.00635 8.57 6.61e-4 1.81 0.00194 3.61 0.00391 5.42-0.00304 1.29-0.00304 1.29-0.00613 2.6-0.107 4.27-0.107 4.27 1.14 8.27 0.153 1.65 0.25 3.3 0.316 4.95 0.0419 1.01 0.0838 2.01 0.127 3.05 0.0393 1.07 0.0786 2.14 0.119 3.25 0.0432 1.08 0.0864 2.17 0.131 3.29 0.263 6.99 0.382 14 0.244 21-0.0568 2.64-0.0568 2.64 1.06 5.51 0.28 2.98 0.517 5.95 0.719 8.94 0.0628 0.876 0.126 1.75 0.19 2.66 0.269 3.75 0.528 7.5 0.789 11.3 0.191 2.74 0.387 5.48 0.583 8.21 0.0573 0.85 0.115 1.7 0.174 2.58 0.237 3.3 0.495 6.21 1.55 9.36 0.0294 2.09-0.0644 4.17-0.16 6.26 0.144 2.47 0.534 4.56 1.1 6.95 1.11 4.74 1.67 9.44 2.12 14.3 0.157 1.59 0.315 3.19 0.473 4.78 0.0761 0.778 0.152 1.56 0.231 2.36 0.237 2.39 0.48 4.79 0.734 7.18 0.11 1.05 0.11 1.05 0.223 2.12 0.397 2.95 1.07 5.81 1.75 8.71 0.556 2.46 1.02 4.93 1.47 7.42 0.169 0.937 0.338 1.87 0.512 2.84 0.384 2.16 0.761 4.32 1.13 6.48 1.74 9.77 3.97 19.4 6.35 29 0.252 1.03 0.505 2.05 0.765 3.11 0.227 0.914 0.454 1.83 0.688 2.77 0.656 2.89 1.13 5.8 1.62 8.72 0.595 2.24 1.22 4.47 1.88 6.69 1.22 4.2 2.43 8.4 3.56 12.6 5.08 18.7 10.9 37.2 17.2 55.5 0.273 0.793 0.546 1.59 0.828 2.4 1.39 3.95 2.86 7.86 4.44 11.7 0.442 1.09 0.442 1.09 0.894 2.21 1.4 2.25 2.72 2.87 5.15 3.84-0.0856-0.861-0.171-1.72-0.26-2.61-0.324-3.27-0.646-6.54-0.967-9.81-0.138-1.4-0.276-2.8-0.416-4.2-0.477-4.79-0.927-9.58-1.36-14.4-0.104-1.12-0.207-2.25-0.314-3.4-1.04-13-0.883-26.1-0.873-39.2-6.04e-5 -1.28-1.21e-4 -2.57-1.83e-4 -3.89 0.0142-21.2 0.574-42.3 2.19-63.5 0.136-1.81 0.136-1.81 0.275-3.66 1.29-16.8 1.29-16.8 2.24-22.4 0.387-2.37 0.637-4.64 0.809-7.03 0.903-12.5 2.64-24.9 4.61-37.3 0.191-1.2 0.191-1.2 0.386-2.43 7.61-47.8 18-95.4 33.7-141 0.317-0.937 0.634-1.87 0.96-2.84 1.95-5.75 3.97-11.5 6.04-17.2 0.371-1.03 0.742-2.06 1.12-3.12 4.91-13.6 10-27 15.9-40.3 0.671-1.54 1.34-3.08 2.01-4.62 0.39-0.892 0.779-1.78 1.18-2.7 0.564-1.34 0.564-1.34 1.14-2.7 0.346-0.808 0.691-1.62 1.05-2.45 0.899-2.3 0.899-2.3-0.368-5.15-0.97-0.0345-1.94-0.069-2.94-0.104-11.2-0.484-22.2-1.94-33.3-3.68-5.17-0.81-10.3-1.59-15.5-2.38-1.04-0.158-2.08-0.316-3.15-0.479-9.76-1.47-19.5-2.79-29.3-4.05-3.08-0.397-6.16-0.794-9.23-1.19-0.73-0.0942-1.46-0.188-2.21-0.286-8.26-1.07-16.5-2.26-24.7-3.46-6.95-1.01-13.9-1.94-20.9-2.81-9.03-1.15-18-2.51-27-3.94-11.3-1.79-22.6-3.51-33.9-5.12-1.07-0.152-1.07-0.152-2.16-0.308-8.66-1.23-17.3-2.42-26-3.58-0.853-0.114-1.71-0.229-2.59-0.347-4.15-0.555-8.29-1.11-12.4-1.65-1.49-0.199-2.99-0.397-4.48-0.596-0.683-0.0883-1.37-0.177-2.07-0.268-2.83-0.379-5.37-0.841-8.09-1.75-2.1-0.289-4.2-0.543-6.3-0.781-12.7-1.51-25.3-3.51-37.9-5.41-2.72-0.41-5.44-0.818-8.16-1.23-3.3-0.495-6.59-0.991-9.89-1.49-1.2-0.18-2.4-0.361-3.64-0.546-6.47-0.978-12.9-2.01-19.4-3.1-5.92-0.989-11.9-1.87-17.8-2.74-1.52-0.225-3.04-0.454-4.56-0.687-16.7-3.4-16.7-3.4-32.3-0.214-0.681 1.05-1.36 2.1-2.06 3.19-0.467 0.674-0.933 1.35-1.41 2.04-1.96 2.93-3.78 5.93-5.59 8.96-0.422 0.701-0.843 1.4-1.28 2.12-8.29 13.9-15.5 28.2-22.3 42.8-1.25 2.68-2.51 5.35-3.78 8.01-6.98 14.9-13.2 31.4-15.1 47.8-0.587 3.39-1.61 5.45-3.56 8.25-2.47-1.15-4.05-2.05-6-4-0.0644-2.64 0.00335-5.13 0.188-7.75 0.0512-0.79 0.102-1.58 0.155-2.39 0.981-13.6 2.46-27.3 6.57-40.3 1.04-3.38 1.93-6.76 2.8-10.2 8.36-33.1 20.9-68.9 38.3-98.3 8.14-4.07 26 1.06 35 2.1 2.9 0.335 5.8 0.665 8.69 0.994 7.96 0.909 15.9 1.83 23.8 2.97 9.53 1.3 19.1 1.86 28.7 2.5 2.79 0.188 5.59 0.377 8.38 0.571 1.72 0.12 3.44 0.235 5.17 0.347 3.25 0.226 6.1 0.484 9.21 1.52 1.62 0.19 3.24 0.336 4.86 0.456 0.986 0.0753 1.97 0.151 2.99 0.228 1.07 0.0784 2.14 0.157 3.24 0.237 2.29 0.176 4.58 0.352 6.87 0.529 1.17 0.0905 2.35 0.181 3.56 0.274 9.69 0.763 19.4 1.65 29 2.52 1.74 0.157 1.74 0.157 3.51 0.316 20.9 1.89 41.8 4.06 62.6 6.38 11.6 1.29 23.3 2.4 34.9 3.29 10.8 0.835 21.5 2 32.2 3.19 22.7 2.52 45.4 4.79 68.2 6.83 9.69 0.879 19.3 1.87 29 3.19 9.34 1.28 18.7 2.23 28.1 3.08 0.697 0.0631 1.39 0.126 2.11 0.191 5.01 0.452 10 0.895 15 1.34 5.06 0.446 10.1 0.895 15.2 1.35 1.98 0.178 3.97 0.35 5.95 0.522 21.1 1.9 21.1 1.9 24.5 4.43 2.04 2.8 1.51 5.28 1.19 8.64-1.14 3.35-1.14 3.35-2.75 6.84-0.286 0.636-0.573 1.27-0.868 1.93-0.613 1.36-1.23 2.71-1.86 4.07-1.64 3.57-3.24 7.16-4.84 10.8-0.32 0.717-0.639 1.43-0.969 2.17-4.03 9.11-7.42 18.4-10.8 27.8-1.23 3.32-2.56 6.6-3.9 9.88-5.66 14-10.8 28.2-15.1 42.7-1.37 4.37-3.07 8.6-4.74 12.9-2.32 5.97-4.18 12-5.93 18.2-1.34 4.7-2.68 9.4-4.04 14.1-0.849 2.95-1.7 5.89-2.54 8.84-0.429 1.49-0.86 2.99-1.29 4.48-4.1 14.2-7.75 28.4-11 42.8-0.204 0.902-0.407 1.8-0.617 2.73-0.4 1.77-0.798 3.54-1.19 5.31-0.366 1.63-0.733 3.27-1.1 4.9-1.09 4.84-2.06 9.68-2.96 14.6-2.77 14.9-2.77 14.9-3.95 20-1.33 5.74-2.26 11.5-3.05 17.3-0.257 1.85-0.515 3.69-0.773 5.54-0.185 1.33-0.185 1.33-0.374 2.69-0.474 3.38-0.969 6.76-1.48 10.1-0.22 1.47-0.22 1.47-0.445 2.98-0.43 2.4-0.43 2.4-1.43 5.4-1.19 6.47-0.881 12.5 0 19h2c2.42-5.11 4.44-10.2 6.19-15.6 8.96-27.4 20.8-53.5 33.4-79.4 0.587-1.21 0.587-1.21 1.19-2.44 7.69-15.8 15.6-31.6 24.6-46.6 0.547-0.915 1.09-1.83 1.66-2.77 1.11-1.85 2.22-3.7 3.33-5.54 1.47-2.45 2.93-4.9 4.4-7.35 9.58-16 20.3-31.2 31.2-46.3 0.651-0.905 1.3-1.81 1.97-2.74 8.31-11.5 16.8-22.9 25.7-33.9 3-3.71 5.86-7.49 8.66-11.4 5.16-6.97 11.1-13.1 17.1-19.4 2.32-2.47 4.53-5.02 6.74-7.59 2.38-2.71 4.82-5.37 7.27-8.02 3.04-3.3 6.06-6.61 9-10 4.72-5.43 9.59-10.7 14.5-16 0.766-0.821 1.53-1.64 2.32-2.49 5.39-5.6 11.3-10.1 17.7-14.5-0.33-2.31-0.66-4.62-1-7-1.24-0.385-2.49-0.771-3.77-1.17-5.86-1.96-11.4-4.53-17-7.14-0.995-0.461-1.99-0.922-3.02-1.4-2.04-0.944-4.07-1.89-6.11-2.84-3.19-1.48-6.39-2.95-9.59-4.42-6.51-3-13-6.1-19.4-9.22-8.76-4.23-17.5-8.44-26.3-12.6-6.2-2.96-12.4-5.95-18.5-9.06-7.35-3.73-14.8-7.17-22.3-10.6-8.1-3.74-16.2-7.51-24.1-11.5-14-7.12-28.3-13.8-42.7-20.1-9.33-4.11-18.5-8.5-27.6-13.1-5.37-2.66-10.8-5.22-16.2-7.79-6.69-3.19-13.3-6.42-20-9.68-1.28-0.625-1.28-0.625-2.58-1.26-6.91-3.38-6.91-3.38-10.3-5.07-9.09-4.47-18.2-8.79-27.5-12.7-3.43-1.46-6.71-3.08-10-4.79-7.72-3.94-15.6-7.6-23.4-11.2-0.613-0.284-1.23-0.569-1.86-0.862-2.89-1.34-5.78-2.67-8.67-3.99-1.67-0.77-3.34-1.56-4.99-2.39-4.56-2.24-8.97-3.21-13.9-1.95-3.35 2.18-6 4.87-8.75 7.75-1.45 1.45-2.9 2.91-4.36 4.36-0.676 0.686-1.35 1.37-2.05 2.08-2.15 2.12-4.47 3.95-6.84 5.81-1.69 1.65-3.35 3.31-5 5-0.874 0.862-1.75 1.72-2.65 2.61-4.72 4.67-9.31 9.38-13.6 14.4-1.92 2.15-3.96 4.13-6.04 6.13-5.52 5.47-10.1 11.6-14.7 17.8-0.409 0.553-0.817 1.11-1.24 1.68-5.66 7.69-11 15.6-16.1 23.6-4.82 7.56-4.82 7.56-6.67 9.68h-2c-0.33 0.99-0.66 1.98-1 3-1.65 0.33-3.3 0.66-5 1 0.468-6.46 2.15-11.2 5.02-17 0.611-1.26 0.611-1.26 1.23-2.55 1.32-2.71 2.66-5.42 4-8.12 0.454-0.923 0.909-1.85 1.38-2.8 6.74-13.7 13.8-26.9 22.4-39.5 0.537-0.799 1.07-1.6 1.63-2.42 3.24-4.82 6.53-9.6 9.84-14.4 1.47-2.13 2.91-4.28 4.33-6.43 6.38-9.6 13.5-18.2 21.2-26.8 1.01-1.13 2.02-2.26 3.02-3.39 4.26-4.75 8.52-9.34 13.5-13.4 1.52-1.26 2.91-2.66 4.31-4.05 3.9-3.9 7.06-3.34 12.2-2.19z" fill="#56A52E"/>
<path transform="translate(1155,681)" d="m0 0c3 1 3 1 4.44 3.31 12.4 25.8 20.5 53.2 27.6 80.9 0.436 1.69 0.436 1.69 0.882 3.42 2.95 11.9 3.28 23.4 3.24 35.6 0.0058 1.94 0.0058 1.94 0.0117 3.92-0.0157 15.8-1.31 30.7-4.26 46.2-0.156 0.827-0.312 1.65-0.473 2.51-9.09 48-26.7 92.6-52.4 134-0.981 1.67-1.96 3.33-2.94 5-3.7 6.16-7.75 12.1-11.8 18.1-1.25 1.86-2.48 3.73-3.71 5.61-13.9 21.2-29.3 41.1-46.4 59.9-1.87 2.08-3.72 4.18-5.56 6.3-10.2 11.7-21.2 22.8-32.2 33.8-0.512 0.515-1.02 1.03-1.55 1.56-13.5 13.5-13.5 13.5-17.9 16.8h-2c-0.33 0.99-0.66 1.98-1 3-1.64 1.46-3.33 2.84-5.06 4.19-4.21 3.36-8.09 6.79-11.8 10.7-5.89 5.81-12.3 10.9-18.9 16-0.786 0.609-1.57 1.22-2.38 1.85-5.34 4.13-10.7 8.18-16.2 12.2-2.74 2.1-5.38 4.28-8.02 6.51-6.01 4.97-12.4 9.17-19 13.4-2.36 1.56-4.67 3.19-6.97 4.82-5.13 3.62-10.4 6.97-15.8 10.3-1.77 1.12-3.54 2.25-5.31 3.38-0.909 0.577-1.82 1.16-2.75 1.75-2.65 1.69-5.29 3.4-7.93 5.11-6.13 3.97-12.3 7.79-18.6 11.5-3.77 2.24-7.47 4.55-11.2 6.93-9.75 6.25-20.2 11.4-30.4 16.7-0.642 0.331-1.28 0.663-1.95 1-4.29 2.21-8.58 4.42-12.9 6.62-0.817 0.421-1.63 0.842-2.48 1.28-12 6.18-24.3 11.8-36.6 17.4-3.63 1.67-7.25 3.38-10.9 5.1-40.3 18.7-83.2 33-126 44.2-2.37 0.639-4.73 1.28-7.1 1.92-17.4 4.61-34.9 8.64-52.6 12.2-2.84 0.575-5.69 1.17-8.53 1.76-11.1 2.25-22 3.78-33.2 4.71-4.62 0.392-9.13 1.12-13.7 1.94-5.56 0.907-11.2 1.39-16.8 1.91-2.07 0.192-4.14 0.395-6.21 0.599-7.39 0.704-14.7 1.05-22.1 0.951-2.42 0.0149-4.7 0.172-7.09 0.506-26.3 3.6-56.7-0.0885-82.7-4.49-0.693-0.115-1.39-0.229-2.1-0.347-4.12-0.686-8.22-1.43-12.3-2.19-3.09-0.56-6.19-1.09-9.28-1.63-46.3-8.01-93.2-23.1-132-49.8-0.576-0.392-1.15-0.783-1.74-1.19-8.89-6.08-17.1-12.7-25.3-19.8-0.727-0.615-1.45-1.23-2.2-1.86-26.8-22.8-47.1-55.1-58.8-88.1-0.498-1.27-0.999-2.54-1.5-3.8-25.8-66.3-7.86-141 19.3-204 5.62-12.7 12.1-24.9 18.8-37 1.69-3.06 3.3-6.16 4.91-9.27 13-25.1 29.7-48.4 47.5-70.2 1.05-1.3 2.1-2.6 3.14-3.9 8.08-10 16.4-19.7 25.1-29.1 2.33-2.54 4.63-5.1 6.93-7.68 25.8-28.7 25.8-28.7 39.7-40.4 1.75-1.58 3.4-3.18 5.04-4.87 0.788-0.806 0.788-0.806 1.59-1.63 1.03-1.07 2.06-2.14 3.08-3.22 3.18-3.28 6.15-5.46 10.4-7.17h3c2.71 7.26 3.98 14.3 5 22 0.186 1.3 0.371 2.6 0.562 3.94 0.144 1.01 0.289 2.02 0.438 3.06 0.402 1.36 0.402 1.36 0.812 2.75 0.503 8.71-4.6 15.8-9.68 22.4-2.85 3.75-5.42 7.66-8.01 11.6-1.47 2.22-2.95 4.43-4.46 6.63-11.8 17.3-21.6 35.6-30.7 54.6-0.448 0.933-0.895 1.87-1.36 2.83-11.9 25.1-18.8 51.9-23.6 79.2l-0.539 2.92c-3.2 17.8-4.73 38.2-1.46 56.1 0.202 1.21 0.405 2.41 0.613 3.66 5.03 27.6 14.4 53.5 29.4 77.3 0.717 1.18 1.43 2.35 2.15 3.53 4.37 6.92 9.54 12.9 15.2 18.8 1.14 1.18 2.27 2.37 3.4 3.56 20.6 21.9 46.6 37.5 74.2 49.1 0.64 0.272 1.28 0.544 1.94 0.824 9.61 4.04 19.4 7.34 29.4 10.4 1.06 0.329 2.12 0.659 3.21 0.998 54.5 16.5 115 17.9 171 11.8 0.869-0.0951 1.74-0.19 2.63-0.288 50.4-5.7 102-16.3 149-33.7 1.05-0.38 2.1-0.76 3.17-1.15 7.96-2.9 15.9-5.85 23.8-8.85 0.874-0.33 1.75-0.661 2.65-1 8.51-3.23 17-6.62 25.4-10.1 0.753-0.313 1.51-0.626 2.28-0.948 4.81-2.03 9.47-4.27 14.1-6.63 3.53-1.77 7.11-3.45 10.7-5.14 32.6-15.4 63.9-33.3 93.9-53.2 0.632-0.415 1.26-0.829 1.92-1.26 14.4-9.43 28.4-19.3 42.1-29.7 0.999-0.754 2-1.51 3.03-2.29 13.7-10.4 26.8-21.3 39.3-33.2 2.56-2.45 5.18-4.8 7.86-7.12 2.94-2.55 5.74-5.18 8.45-7.97 2.46-2.5 4.91-4.91 7.62-7.12 3.82-3.12 7.1-6.46 10.2-10.2 3.09-3.71 6.5-7.01 9.93-10.4 4.42-4.37 8.7-8.77 12.7-13.5 2.16-2.49 4.4-4.88 6.64-7.3 4.99-5.48 9.48-11.2 13.9-17.2 1.26-1.66 2.54-3.31 3.83-4.95 4.71-6.02 9.18-12.1 13.3-18.6 1.73-2.62 3.52-5.17 5.34-7.72 4.09-5.82 7.75-11.9 11.4-18 0.343-0.58 0.686-1.16 1.04-1.76 14.7-24.9 26.8-50.1 35.3-77.7 0.35-1.12 0.35-1.12 0.707-2.26 7.44-24.1 11.7-49.4 11.7-74.7-3.17e-4 -1.21-3.17e-4 -1.21-6.41e-4 -2.44-0.0475-18.2-2.08-35.3-8.33-52.5-1.41-4.25-2.42-8.65-2.05-13.2 0.66-0.66 1.32-1.32 2-2z" fill="#FB9B19"/>
<path transform="translate(831,437)" d="m0 0c2 2 2 2 2.01 5.15-0.107 1.25-0.214 2.5-0.324 3.79-0.149 1.87-0.149 1.87-0.301 3.78-0.387 3.29-0.387 3.29-1.39 6.29-0.0438 1.67-0.0397 3.33 0 5 0.0741 3.11-0.00225 5.01-1 8-0.0687 3.29 0.00253 6.58 0.0625 9.87-0.0625 3.13-0.0625 3.13-0.562 4.91-0.675 3-0.593 5.81-0.562 8.89 0.00773 1.29 0.0155 2.57 0.0234 3.9 0.0124 1.35 0.0255 2.71 0.0391 4.06 0.0266 2.66 0.0465 5.32 0.0625 7.98 0.0116 1.18 0.0232 2.36 0.0352 3.57-0.0977 2.83-0.0977 2.83-1.1 4.83-0.0993 2.97-0.14 5.91-0.133 8.88-9.57e-4 0.88-0.00191 1.76-0.0029 2.67-6.81e-4 1.86 0.00117 3.73 0.00534 5.59 0.00535 2.86 5.26e-5 5.71-0.00635 8.57 6.61e-4 1.81 0.00194 3.61 0.00391 5.42-0.00304 1.29-0.00304 1.29-0.00613 2.6-0.107 4.27-0.107 4.27 1.14 8.27 0.153 1.65 0.25 3.3 0.316 4.95 0.0419 1.01 0.0838 2.01 0.127 3.05 0.059 1.61 0.059 1.61 0.119 3.25 0.0432 1.08 0.0864 2.17 0.131 3.29 0.263 6.99 0.382 14 0.244 21-0.0568 2.64-0.0568 2.64 1.06 5.51 0.28 2.98 0.517 5.95 0.719 8.94 0.0628 0.876 0.126 1.75 0.19 2.66 0.269 3.75 0.528 7.5 0.789 11.3 0.191 2.74 0.387 5.48 0.583 8.21 0.0573 0.85 0.115 1.7 0.174 2.58 0.237 3.3 0.495 6.21 1.55 9.36 0.0294 2.09-0.0644 4.17-0.16 6.26 0.144 2.47 0.534 4.56 1.1 6.95 1.11 4.74 1.67 9.44 2.12 14.3 0.157 1.59 0.315 3.19 0.473 4.78 0.0761 0.778 0.152 1.56 0.231 2.36 0.237 2.39 0.48 4.79 0.734 7.18 0.0735 0.699 0.147 1.4 0.223 2.12 0.397 2.95 1.07 5.81 1.75 8.71 0.556 2.46 1.02 4.93 1.47 7.42 0.169 0.937 0.338 1.87 0.512 2.84 0.384 2.16 0.761 4.32 1.13 6.48 1.74 9.77 3.97 19.4 6.35 29 0.252 1.03 0.505 2.05 0.765 3.11 0.341 1.37 0.341 1.37 0.688 2.77 0.656 2.89 1.13 5.8 1.62 8.72 0.595 2.24 1.22 4.47 1.88 6.69 1.22 4.2 2.43 8.4 3.56 12.6 5.08 18.7 10.9 37.2 17.2 55.5 0.273 0.793 0.546 1.59 0.828 2.4 1.66 4.72 3.53 9.29 5.6 13.8 1.04 2.29 1.97 4.6 2.88 6.94h2c0.33-0.66 0.66-1.32 1-2 2.06-0.625 2.06-0.625 4-1 0.0548-1.85 0.0931-3.71 0.125-5.56 0.0348-1.55 0.0348-1.55 0.0703-3.13-0.0646-3.33-0.0646-3.33-1.16-6.45-1.43-5.37-1.51-10.6-1.66-16.1-0.0379-1.22-0.0759-2.44-0.115-3.7-0.504-18.7-0.345-37.4-0.26-56.1 0.639-0.124 1.28-0.247 1.94-0.375 0.681-0.206 1.36-0.412 2.06-0.625 0.33-0.66 0.66-1.32 1-2 1.56 1.13 1.56 1.13 3 3-0.313 3.19-0.313 3.19-1 6h3c0.66-1.32 1.32-2.64 2-4 0.391 5.86 0.391 5.86 0 8-0.66 0.556-1.32 1.11-2 1.69-2.77 3.21-2.46 5.29-2.39 9.49 0.00849 1.02 0.00849 1.02 0.0172 2.07 0.0223 2.17 0.0725 4.34 0.123 6.51 0.0201 1.48 0.0383 2.95 0.0547 4.43 0.044 3.61 0.113 7.22 0.195 10.8h3v2c1.65-0.66 3.3-1.32 5-2v2c3.16-1.69 3.16-1.69 4-4.56 0.33-0.804 0.66-1.61 1-2.44 0.99-0.33 1.98-0.66 3-1v-2h-2v-3h2v-2h-2v-6h-2c-0.833-6.25-1.04-11.8 0-18h2v-2c2.64-0.33 5.28-0.66 8-1v-2h2c-0.66-1.65-1.32-3.3-2-5 4.89-1.41 8.01-2.28 13-1 0.99-0.33 1.98-0.66 3-1 3 1 3 1 4.19 3.06 0.268 0.639 0.536 1.28 0.812 1.94h2c0.688 2.81 0.688 2.81 1 6-1.44 1.88-1.44 1.88-3 3v-7h-2c-0.124 0.928-0.247 1.86-0.375 2.81-0.625 3.19-0.625 3.19-2.62 6.19-0.385 1.66-0.728 3.32-1 5-1.65 0.33-3.3 0.66-5 1-0.33 3.63-0.66 7.26-1 11 1.65 0.33 3.3 0.66 5 1v5c-0.99 0.33-1.98 0.66-3 1v2h2v3h-2v2h2c1.62 4.17 2.52 6.62 0.688 10.8-0.557 1.05-1.11 2.1-1.69 3.19-1.46 2.93-1.17 5.55-1.19 8.81-0.0213 1.83-0.0213 1.83-0.043 3.71 0.221 3.34 0.896 5.46 2.23 8.48v3c-0.784 0.516-1.57 1.03-2.38 1.56-4.3 3.99-4.41 9.07-4.77 14.7-0.0483 2.58-0.0461 5.02 0.656 7.52 0.674 3.01 0.585 5.87 0.555 8.95-0.00902 1.17-0.018 2.34-0.0273 3.55-0.0174 1.34-0.0174 1.34-0.0352 2.7-0.619 0.103-1.24 0.206-1.88 0.312-2.49 0.563-2.49 0.563-4.12 3.69-3.52 0.424-6.98 0.44-10.5 0.496-4.03 0.583-5.48 1.86-8.48 4.5-3.81 0.75-3.81 0.75-7 1v6c0.66-0.33 1.32-0.66 2-1 0.652-2.02 0.652-2.02 1-4h1c0.66 1.98 1.32 3.96 2 6h3c0.309 0.969 0.619 1.94 0.938 2.94 0.758 2.9 0.758 2.9 2.06 4.06 0.143 3.67 0.0422 7.33 0 11h12c-0.165 1.86-0.33 3.71-0.5 5.62-0.547 7.11-0.85 14.2-0.5 21.4 0.33 0.33 0.66 0.66 1 1 0.428 2.81 0.799 5.61 1.12 8.44 0.0993 0.79 0.199 1.58 0.301 2.39 0.697 5.92 0.697 5.92-0.426 8.17-2.07 0.633-2.07 0.633-4.56 1.12-1.24 0.251-1.24 0.251-2.5 0.508-0.638 0.121-1.28 0.242-1.93 0.367v2c3.96 0.33 7.92 0.66 12 1 0.33-1.32 0.66-2.64 1-4 0.33 1.32 0.66 2.64 1 4 1.29-0.0838 2.58-0.168 3.9-0.254 1.68-0.103 3.36-0.206 5.04-0.309 0.85-0.0561 1.7-0.112 2.58-0.17 0.809-0.0483 1.62-0.0967 2.45-0.146 0.749-0.0471 1.5-0.0943 2.27-0.143 1.77 0.0217 1.77 0.0217 2.77 1.02 0.0408 2 0.0425 4 0 6-1.89 0.0928-1.89 0.0928-3.81 0.188-2.21 0.198-2.21 0.198-4.19 0.812-0.474 0.825-0.949 1.65-1.44 2.5-1.56 2.5-1.56 2.5-3.31 3.05-2.43 0.291-4.8 0.403-7.25 0.449-1.58 0.0406-1.58 0.0406-3.19 0.082-8.43 0.111-8.43 0.111-10.8-1.08v-2c-0.99-0.33-1.98-0.66-3-1v-2h-2c-4.02-3.69-7.5-7.83-11-12 0 2.5 0.752 3.85 2 6 0.66 0.33 1.32 0.66 2 1v2c0.598 0.0825 1.2 0.165 1.81 0.25 2.78 0.955 3.62 2.32 5.19 4.75-0.66 0.33-1.32 0.66-2 1 0.934 0.961 1.87 1.92 2.81 2.88 0.783 0.801 0.783 0.801 1.58 1.62 1.74 1.72 1.74 1.72 4.61 3.51-4.89-0.419-6.77-2.44-10-6-1.11-1.08-1.11-1.08-2.25-2.19-5.79-5.92-11.3-11.7-15.5-18.9-1.44-2.23-3.09-4.1-4.88-6.06-3.3-3.66-5.85-7.19-6.81-12.1-0.424-1.97-0.424-1.97-2.62-3-0.959-0.371-0.959-0.371-1.94-0.75 0.206-1.24 0.413-2.48 0.625-3.75 0.436-3.37 0.409-5.38-1.62-8.25-0.33 0.66-0.66 1.32-1 2h2c-0.33 0.99-0.66 1.98-1 3 0.33 0.66 0.66 1.32 1 2-3.72-1.24-5.32-3.19-8-6-0.66-0.66-1.32-1.32-2-2v-4c-0.99-0.33-1.98-0.66-3-1l-2-4c-0.742-0.722-1.49-1.44-2.25-2.19-6.2-6.34-11.5-14.2-12.2-23.2-0.388-4.91-2.16-8.3-4.56-12.6-0.66 0.66-1.32 1.32-2 2-0.266-0.543-0.531-1.09-0.805-1.64-0.353-0.715-0.706-1.43-1.07-2.17-0.348-0.708-0.696-1.42-1.05-2.14-1.14-2.26-1.14-2.26-3.07-5.04v-3h-2c-0.193-0.843-0.387-1.69-0.586-2.55-0.26-1.1-0.521-2.19-0.789-3.32-0.383-1.64-0.383-1.64-0.773-3.3-0.641-2.92-0.641-2.92-2.85-4.82-0.442-2.38-0.8-4.73-1.12-7.12-1.33-8.75-4.03-16.9-7.09-25.1-2.82-7.9-3.78-15.4-3.78-23.7h2v-6h-2c-0.33-0.99-0.66-1.98-1-3-0.66-0.33-1.32-0.66-2-1 0.66 1.65 1.32 3.3 2 5h-3c-1.72-7.09-2.25-13.7-2-21 0.296 0.614 0.593 1.23 0.898 1.86 1.16 2.25 2.54 4.15 4.1 6.14-0.0309-1.33-0.0309-1.33-0.0625-2.69 0.0625-3.31 0.0625-3.31 0.75-5.62 0.419-3.61-0.691-6.16-1.91-9.54-0.853-2.37-1.47-4.65-1.77-7.15 0.33-0.66 0.66-1.32 1-2h-2c-1.66-5.34-1.66-5.34-2-8 1.37-1.5 1.37-1.5 3-3 0.288-2.72 0.135-5.26 0-8h-3c-0.33 0.66-0.66 1.32-1 2-0.413-0.639-0.825-1.28-1.25-1.94-1.97-2.32-2.86-2.5-5.75-3.06-1.56-9.58-2.51-19.1-3.21-28.8-0.44-5.62-1.32-10.7-2.79-16.2-0.208-1.56-0.384-3.12-0.5-4.69-0.325-3.43-1.1-6.14-2.5-9.31v-3c-0.155-0.853-0.309-1.71-0.469-2.59-0.806-5.18-0.921-10.4-1.14-15.6-0.0374-0.817-0.0748-1.63-0.113-2.48-0.0303-0.737-0.0606-1.47-0.0918-2.23-0.123-2.08-0.123-2.08-0.699-3.93-0.704-3.12-0.621-6.12-0.624-9.31-0.00144-1.02-0.00144-1.02-0.0029-2.06-6.78e-4 -1.43 0.00115-2.86 0.00534-4.29 0.00538-2.2 3.09e-5 -4.4-0.00635-6.6 6.6e-4 -1.39 0.00194-2.78 0.00391-4.17 0.00113-1.27 0.00226-2.54 0.00342-3.84 0.129-2.9 0.129-2.9 1.13-3.9 0.368-2.33 0.702-4.66 1-7h2c0.33 2.31 0.66 4.62 1 7h2c-0.14-4.02-0.288-8.04-0.438-12.1-0.0393-1.13-0.0786-2.27-0.119-3.44-0.23-6.78-0.23-6.78-1.01-13.5-0.414-2.84-0.392-5.11 0-7.94 0.102-0.772 0.204-1.54 0.309-2.34 0.126-0.853 0.126-0.853 0.254-1.72h-2v9h-1c-0.578-5.33-1.15-10.7-1.71-16-0.192-1.81-0.386-3.62-0.582-5.43-1.98-18.3-1.98-18.3-1.68-27.3-0.027-2.27-0.38-4.13-1.03-6.3h-2v-4h-2c-0.33 0.66-0.66 1.32-1 2v-3c-5.61-0.66-11.2-1.32-17-2v3c-1.09 0.227-2.19 0.453-3.31 0.687-4.11 0.852-8.21 1.71-12.3 2.57-1.77 0.369-3.54 0.736-5.3 1.1-8.53 1.77-17 3.54-25.4 5.94-4.52 1.19-9.11 2.03-13.7 2.92-4.04 0.787-8.05 1.64-12.1 2.51-0.695 0.151-1.39 0.301-2.11 0.457-1.45 0.315-2.9 0.631-4.36 0.947-4.02 0.876-8.04 1.75-12.1 2.62-0.842 0.183-1.68 0.365-2.55 0.553-6.21 1.35-12.4 2.68-18.6 4.01-0.895 0.191-1.79 0.383-2.71 0.58-3.6 0.77-7.21 1.54-10.8 2.31-11.8 2.53-23.6 5.12-35.5 7.77-7.24 1.62-14.5 3.1-21.8 4.53-9.09 1.78-18.1 3.78-27.1 5.91-7.6 1.78-15.2 3.44-22.9 5.05-1.55 0.327-1.55 0.327-3.13 0.661-5.2 1.1-10.4 2.19-15.6 3.27-9.55 2-19 4.12-28.4 6.72-5.17 1.38-10.4 2.46-15.6 3.51-1.49 0.306-1.49 0.306-3.01 0.617-4.66 0.954-9.33 1.89-14 2.82-8.8 1.76-17.6 3.62-26.2 5.88-11.4 2.92-22.9 4.95-34.5 6.95-1.18 0.205-1.18 0.205-2.39 0.414-1.49 0.255-2.97 0.506-4.46 0.752-3.32 0.335-3.32 0.335-6.06 1.95-1.47 10.5-0.823 20.7 0.238 31.2 0.473 4.76 0.801 9.41 0.708 14.2-0.0879 9.25 1.07 18.4 1.99 27.6 0.185 1.88 0.369 3.75 0.553 5.63 0.265 2.71 0.532 5.42 0.802 8.12 0.536 5.37 1.04 10.7 1.46 16.1 0.195 2.05 0.195 2.05 0.748 3.98 0.622 2.61 0.728 5.1 0.867 7.78 4.52 67.5 21.1 135 40.6 199 0.239 0.794 0.478 1.59 0.724 2.4 5.51 18.3 11.4 36.3 18.3 54.1 1.42 3.75 2.72 7.53 4.02 11.3 3.21 9.25 7.04 18.2 10.9 27.2 0.605 1.4 0.605 1.4 1.22 2.83 9.77 22.6 19.7 45.1 31.5 66.7 1.45 2.68 2.88 5.37 4.3 8.06 7.86 14.8 16.3 29.1 25 43.4 1.05 1.73 2.1 3.46 3.15 5.19 6.15 10.1 12.4 20.2 19 30 4.57 6.85 8.12 12.5 8.81 20.8-5.41-1.32-9.26-3.93-13-8v-2c-0.99-0.33-1.98-0.66-3-1-1.76-1.97-1.76-1.97-3.69-4.5-2.61-3.36-5.26-6.61-8.12-9.75-3.9-4.33-7.48-8.86-11.1-13.5-2.8-3.6-5.65-7.15-8.57-10.7-8.35-10.1-16.2-20.8-23.6-31.6-0.587-0.86-1.17-1.72-1.78-2.61-10.4-15.5-20.2-31.4-29.5-47.5-1.11-1.92-2.23-3.84-3.35-5.75-14.5-24.9-26.9-51-37.1-77.9-1.11-2.92-2.24-5.83-3.38-8.73-7.78-19.9-14.3-40.1-20.3-60.7-0.495-1.69-0.995-3.38-1.49-5.07-1.75-5.92-3.44-11.9-5.06-17.8-0.289-1.06-0.577-2.12-0.875-3.21-3.27-12.1-6.52-24.1-8.32-36.6-0.617-3.74-1.64-7.33-2.66-11-2.55-9.24-4.08-18.6-5.64-28.1-0.305-1.82-0.61-3.65-0.915-5.47-0.741-4.44-1.47-8.88-2.2-13.3-0.353-2.16-0.708-4.33-1.06-6.49-1.88-11.5-3.56-23-4.61-34.6-0.539-5.87-1.33-11.7-2.22-17.5-1.34-8.89-2.19-17.8-2.85-26.8-0.354-4.72-0.829-9.32-1.65-14v-7c-0.33-0.66-0.66-1.32-1-2-0.059-3.63-0.0206-7.25 0.0391-10.9 0.171-4.19 0.171-4.19-1.04-8.12-0.0589-3.42-0.0207-6.82 0.0391-10.2 0.148-4.01 0.148-4.01-1.04-7.77-0.227-2.31-0.394-4.62-0.535-6.94-0.065-1.06-0.065-1.06-0.131-2.13-0.52-8.64-0.949-17.3-1.33-25.9-0.032-0.699-0.0639-1.4-0.0969-2.12-0.191-4.27-0.316-8.54-0.403-12.8-0.0639-1.6-0.0639-1.6-0.129-3.24-0.0249-2.74 0.0172-5.15 0.629-7.82 3.56-3.47 7.21-4.59 12-5.62 3.02-0.669 5.94-1.35 8.88-2.34 3.66-1.21 7.37-2.06 11.1-2.91 6.46-1.48 12.8-3.18 19.2-5.05 5.63-1.58 11.3-2.96 17-4.32 0.814-0.199 1.63-0.397 2.47-0.602 1.08-0.26 1.08-0.26 2.19-0.526 2.47-0.706 4.79-1.66 7.18-2.62 1.49-0.454 2.98-0.878 4.49-1.28 0.961-0.256 1.92-0.513 2.91-0.777 1.19-0.312 2.38-0.624 3.6-0.946 1.57-0.413 3.13-0.826 4.7-1.24 4.54-1.2 9.09-2.39 13.6-3.58 2.86-0.747 5.71-1.5 8.57-2.24 1.84-0.481 3.68-0.962 5.51-1.44 0.843-0.221 1.69-0.442 2.55-0.669 3.83-1 7.65-1.99 11.5-2.94 2.58-0.649 4.99-1.34 7.47-2.26 5.11-1.76 10.3-2.92 15.6-4.09 3.66-0.827 7.27-1.75 10.9-2.85 7.11-2.17 14.3-4.08 21.5-6.02 2.45-0.662 4.9-1.33 7.34-1.99 8.01-2.17 16-4.26 24.1-6 2.68-0.678 5.12-1.63 7.68-2.68 1.78-0.315 3.58-0.583 5.38-0.812 5.32-0.831 10.1-2.29 15.2-4.09 7.02-2.42 14.2-4.13 21.4-5.87 6.48-1.57 12.9-3.31 19.3-5.16 6-1.72 12-3.36 18.1-5 2.1-0.571 4.2-1.14 6.3-1.72 6.62-1.8 13.2-3.59 19.9-5.36 8.01-2.13 16-4.31 24-6.5 2.78-0.761 5.56-1.52 8.34-2.28 0.682-0.187 1.36-0.373 2.07-0.565 3.32-0.907 6.65-1.81 9.98-2.68 8.27-2.18 16.5-4.51 24.7-6.97 16.1-4.81 32.2-9.35 48.5-13.7 3.24-0.881 6.49-1.77 9.73-2.65 2.09-0.568 4.18-1.14 6.27-1.7 0.954-0.261 1.91-0.523 2.89-0.792 16.9-4.57 16.9-4.57 23.1-4.11z" fill="#56A62E"/>
<path transform="translate(814,157)" d="m0 0c3.05 1.15 5.91 2.59 8.81 4.06 6.61 3.25 13.3 6.31 20.1 9.12 5.33 2.2 10.6 4.46 15.8 6.94 5.39 2.53 10.9 4.64 16.4 6.7 7.85 2.89 15.5 6.04 23.1 9.66 7.22 3.46 14.5 6.38 22.1 9.03 3.59 1.27 7.03 2.59 10.4 4.35 5.17 2.67 10.6 4.7 16 6.82 11.4 4.45 22.6 9.11 33.8 14 9.53 4.17 19.1 8.24 28.7 12.1 6.03 2.45 12 4.97 18 7.54l2.59 1.12c1.31 0.563 1.31 0.563 2.64 1.14 17.9 7.71 35.9 15.2 53.9 22.6 8.35 3.45 16.7 6.91 25 10.4 1.08 0.458 2.15 0.915 3.26 1.39 2.18 0.928 4.36 1.86 6.54 2.79 6.49 2.76 13 5.36 19.6 7.87 5.17 2.01 10.3 4.18 15.4 6.36 2.27 0.964 4.53 1.93 6.8 2.89 1.15 0.49 2.3 0.981 3.49 1.49 3.53 1.5 7.07 2.99 10.6 4.48 1.15 0.485 2.3 0.969 3.48 1.47 2.18 0.919 4.36 1.84 6.55 2.75 4.96 2.09 9.89 4.23 14.8 6.48 3.58 1.64 7.15 3.16 10.9 4.5 7.33 2.76 14.5 5.92 21.6 9.08 4.41 1.94 8.81 3.85 13.3 5.54 1.04 0.391 1.04 0.391 2.1 0.789 1.8 0.667 3.62 1.31 5.43 1.96 3.21 1.68 4.23 3.21 5.77 6.45-1.79 1.67-3.58 3.34-5.38 5-0.508 0.477-1.02 0.954-1.54 1.45-3.86 3.55-3.86 3.55-6.09 3.55-0.33 0.99-0.66 1.98-1 3-1.36 1.37-1.36 1.37-3.19 2.88-4.05 3.43-7.94 7-11.8 10.6-4.25 3.97-8.53 7.89-12.9 11.7-3.28 2.88-6.48 5.85-9.68 8.82-2.46 2.27-4.95 4.47-7.54 6.59-2.36 2-4.27 3.9-6.22 6.28-2.36 2.78-4.77 5.21-7.56 7.56-3.79 3.21-7 6.74-10.2 10.5-2.17 2.47-4.46 4.78-6.82 7.07-1.08 1.14-1.08 1.14-2.19 2.31-1.81 1.69-1.81 1.69-3.81 1.69-0.66-1.32-1.32-2.64-2-4 0.66-0.66 1.32-1.32 2-2-2.82-1.41-5.59-1.38-8.71-1.62-2.42-0.401-4.16-1.18-6.29-2.38 0.126-1.14 0.126-1.14 0.254-2.3 0.102-0.994 0.204-1.99 0.309-3.01 0.104-0.986 0.209-1.97 0.316-2.99 0.287-2.8 0.287-2.8-0.879-5.7-0.412-8.65-0.412-8.65 2-12 0.66-0.33 1.32-0.66 2-1 0.66-0.99 1.32-1.98 2-3v4c3.28-0.752 3.28-0.752 5-4 0.33 0.66 0.66 1.32 1 2 1.31-1.09 1.31-1.09 1.1-3.72-0.0116-1.1-0.0232-2.2-0.0352-3.34-0.0135-1.66-0.0135-1.66-0.0273-3.35-0.0116-0.855-0.0232-1.71-0.0352-2.59-0.66 0.99-1.32 1.98-2 3-0.66 0.66-1.32 1.32-2 2v-5c-0.66-0.33-1.32-0.66-2-1 0.619-0.578 1.24-1.15 1.88-1.75 1.97-2.09 2.9-3.71 4.12-6.25 1.62-1.75 1.62-1.75 3-3-1.32 0.33-2.64 0.66-4 1-0.33-0.66-0.66-1.32-1-2 0.66-0.33 1.32-0.66 2-1v-3c2-1.69 2-1.69 4-3-0.33-2.31-0.66-4.62-1-7-1.86-0.578-1.86-0.578-3.77-1.17-5.86-1.96-11.4-4.53-17-7.14-0.995-0.461-1.99-0.922-3.02-1.4-2.04-0.944-4.07-1.89-6.11-2.84-3.19-1.48-6.39-2.95-9.59-4.42-6.51-3-13-6.1-19.4-9.22-8.76-4.23-17.5-8.44-26.3-12.6-6.2-2.96-12.4-5.95-18.5-9.06-7.35-3.73-14.8-7.17-22.3-10.6-8.1-3.74-16.2-7.51-24.1-11.5-14-7.12-28.3-13.8-42.7-20.1-9.33-4.11-18.5-8.5-27.6-13.1-5.37-2.66-10.8-5.22-16.2-7.79-6.69-3.19-13.3-6.42-20-9.68-1.28-0.625-1.28-0.625-2.58-1.26-6.91-3.38-6.91-3.38-10.3-5.07-9.09-4.47-18.2-8.79-27.5-12.7-3.43-1.46-6.71-3.08-10-4.79-7.72-3.94-15.6-7.6-23.4-11.2-0.613-0.284-1.23-0.569-1.86-0.862-2.89-1.34-5.78-2.67-8.67-3.99-1.67-0.77-3.34-1.56-4.99-2.39-4.56-2.24-8.97-3.21-13.9-1.95-3.35 2.18-6 4.87-8.75 7.75-1.45 1.45-2.9 2.91-4.36 4.36-0.676 0.686-1.35 1.37-2.05 2.08-2.15 2.12-4.47 3.95-6.84 5.81-1.69 1.65-3.35 3.31-5 5-0.874 0.862-1.75 1.72-2.65 2.61-4.72 4.67-9.31 9.38-13.6 14.4-1.92 2.15-3.96 4.13-6.04 6.13-5.52 5.47-10.1 11.6-14.7 17.8-0.409 0.553-0.817 1.11-1.24 1.68-5.66 7.69-11 15.6-16.1 23.6-4.82 7.56-4.82 7.56-6.67 9.68h-2c-0.33 0.99-0.66 1.98-1 3-1.65 0.33-3.3 0.66-5 1 0.468-6.46 2.15-11.2 5.02-17 0.407-0.842 0.815-1.68 1.23-2.55 1.32-2.71 2.66-5.42 4-8.12 0.454-0.923 0.909-1.85 1.38-2.8 6.74-13.7 13.8-26.9 22.4-39.5 0.537-0.799 1.07-1.6 1.63-2.42 3.24-4.82 6.53-9.6 9.84-14.4 1.47-2.13 2.91-4.28 4.33-6.43 6.38-9.6 13.5-18.2 21.2-26.8 1.01-1.13 2.02-2.26 3.02-3.39 4.26-4.75 8.52-9.34 13.5-13.4 1.52-1.26 2.91-2.66 4.31-4.05 3.9-3.9 7.06-3.34 12.2-2.19z" fill="#56A62E"/>
<path transform="translate(351,570)" d="m0 0 2 4c-0.99 1.49-0.99 1.49-2 3h-3c-0.217 1.83-0.217 1.83-0.438 3.69-0.279 2.28-0.595 4.45-1.12 6.69-0.698 4.19-0.512 8.39-0.438 12.6 1.32 0.33 2.64 0.66 4 1-0.99 0.33-1.98 0.66-3 1-0.33 0.99-0.66 1.98-1 3-1.32-0.66-2.64-1.32-4-2v2h3v2h2v3h2c0.338 0.615 0.675 1.23 1.02 1.86 0.669 1.21 0.669 1.21 1.35 2.45 0.661 1.2 0.661 1.2 1.34 2.43 1.02 1.8 2.14 3.54 3.29 5.26v4c1.24-3.58 0.749-6.34 0-10 1.32 0.66 2.64 1.32 4 2v11h2c0.147 1.59 0.147 1.59 0.297 3.21 0.15 1.39 0.301 2.78 0.453 4.16 0.0619 0.699 0.124 1.4 0.188 2.12 0.224 2.29 0.224 2.29 1.06 5.51 1.94 1.37 1.94 1.37 4 2 0.75 2.62 0.75 2.62 1 5h2c0.552 5.5 1.1 11 1.65 16.5 0.187 1.86 0.374 3.73 0.562 5.59 0.271 2.7 0.542 5.4 0.812 8.1 0.0874 0.87 0.175 1.74 0.265 2.64 0.536 5.37 1.04 10.7 1.46 16.1 0.195 2.06 0.195 2.06 0.748 3.99 0.622 2.61 0.728 5.1 0.867 7.78 4.52 67.5 21.1 135 40.6 199 0.239 0.794 0.478 1.59 0.724 2.4 5.51 18.3 11.4 36.3 18.3 54.1 1.42 3.75 2.72 7.53 4.02 11.3 3.21 9.25 7.04 18.2 10.9 27.2 0.605 1.4 0.605 1.4 1.22 2.83 9.77 22.6 19.7 45.1 31.5 66.7 1.45 2.68 2.88 5.37 4.3 8.06 7.86 14.8 16.3 29.1 25 43.4 1.05 1.73 2.1 3.46 3.15 5.19 6.15 10.1 12.4 20.2 19 30 4.57 6.85 8.12 12.5 8.81 20.8-5.41-1.32-9.26-3.93-13-8v-2c-0.99-0.33-1.98-0.66-3-1-1.76-1.97-1.76-1.97-3.69-4.5-2.61-3.36-5.26-6.61-8.12-9.75-3.9-4.33-7.48-8.86-11.1-13.5-2.8-3.6-5.65-7.15-8.57-10.7-8.35-10.1-16.2-20.8-23.6-31.6-0.587-0.86-1.17-1.72-1.78-2.61-10.4-15.5-20.2-31.4-29.5-47.5-1.11-1.92-2.23-3.84-3.35-5.75-14.5-24.9-26.9-51-37.1-77.9-1.11-2.92-2.24-5.83-3.38-8.73-7.78-19.9-14.3-40.1-20.3-60.7-0.495-1.69-0.995-3.38-1.49-5.07-1.75-5.92-3.44-11.9-5.06-17.8-0.289-1.06-0.577-2.12-0.875-3.21-3.27-12.1-6.52-24.1-8.32-36.6-0.617-3.74-1.64-7.33-2.66-11-2.55-9.24-4.08-18.6-5.64-28.1-0.305-1.82-0.61-3.65-0.915-5.47-0.741-4.44-1.47-8.88-2.2-13.3-0.353-2.16-0.708-4.33-1.06-6.49-1.88-11.5-3.56-23-4.61-34.6-0.539-5.87-1.33-11.7-2.22-17.5-1.34-8.89-2.19-17.8-2.85-26.8-0.354-4.72-0.829-9.32-1.65-14v-7c-0.33-0.66-0.66-1.32-1-2-0.059-3.63-0.0206-7.25 0.0391-10.9 0.171-4.19 0.171-4.19-1.04-8.12 0.0637-2.66 0.188-5.28 0.375-7.94 0.0438-0.729 0.0877-1.46 0.133-2.21 0.207-3.14 0.492-5.85 1.49-8.85 0.0818-1.51 0.107-3.02 0.0977-4.53-0.0033-0.915-0.00661-1.83-0.01-2.77-0.0083-0.987-0.0166-1.97-0.0251-2.99-0.00379-1.02-0.00757-2.04-0.0115-3.09-0.0163-4.37-0.0443-8.73-0.0715-13.1-0.0182-3.19-0.0302-6.37-0.042-9.56-0.0083-0.977-0.0166-1.95-0.0251-2.96-0.0193-5.43 0.283-10.6 1.09-16 2.31-0.66 4.62-1.32 7-2v-3c1.32-0.66 2.64-1.32 4-2z" fill="#4E9F22"/>
<path transform="translate(693,490)" d="m0 0v5h4v3l4 2c-1.49 0.99-1.49 0.99-3 2 2.67 0.891 5.24 1.48 8 2v3c4.21 0.947 7.46 0.783 11.7 0.125 4.51-0.245 8.91 0.899 13.3 1.88-0.33 0.66-0.66 1.32-1 2-2.33 0.0424-4.67 0.0409-7 0-0.33-0.33-0.66-0.66-1-1-5.3-0.668-5.3-0.668-9.76 1.52-0.41 0.49-0.82 0.98-1.24 1.48 0.557-0.0722 1.11-0.144 1.69-0.219 3.84-0.467 7.56-0.833 11.4-0.719 4-0.0646 7.05-0.95 10.9-2.06 2.33-0.074 4.67-0.0952 7 0-0.33 0.99-0.66 1.98-1 3-2.32 0.88-4.47 1.54-6.88 2.12-0.673 0.171-1.35 0.342-2.04 0.518-14.7 3.57-14.7 3.57-19.1 1.36v2c-1.32-0.33-2.64-0.66-4-1v2c-0.545 0.11-1.09 0.219-1.65 0.332-1.13 0.238-1.13 0.238-2.29 0.48-0.731 0.151-1.46 0.302-2.21 0.457-2.39 0.613-4.64 1.34-6.97 2.15-5.25 1.78-10.6 2.9-16 4.02-6.84 1.43-13.6 2.96-20.3 4.88-5.07 1.41-9.32 2.12-14.6 1.69v3c-47.2 10.8-47.2 10.8-67.9 14.8-10.5 2.05-20.9 4.24-31.3 6.7-7.42 1.75-14.9 3.37-22.3 4.94-1.03 0.219-2.07 0.437-3.13 0.662-5.21 1.1-10.4 2.19-15.6 3.28-9.55 2-19 4.12-28.4 6.72-5.17 1.38-10.4 2.46-15.6 3.51-1.49 0.306-1.49 0.306-3.01 0.617-4.66 0.954-9.33 1.89-14 2.82-8.8 1.76-17.6 3.62-26.2 5.88-11.4 2.92-22.9 4.95-34.5 6.95-0.789 0.137-1.58 0.273-2.39 0.414-1.49 0.255-2.97 0.506-4.46 0.752-3.32 0.335-3.32 0.335-6.06 1.95-1.48 10.5-0.766 20.7 0.233 31.2 0.716 7.63 1.01 15.1 0.767 22.8h-2c-0.495-2.48-0.495-2.48-1-5-0.639-0.144-1.28-0.289-1.94-0.438-2.06-0.562-2.06-0.562-3.06-1.56-0.931-5.07-1.09-9.87-1-15h-2c-0.049-0.615-0.098-1.23-0.148-1.86-0.0748-0.808-0.15-1.62-0.227-2.45-0.0696-0.801-0.139-1.6-0.211-2.43-0.31-2.53-0.31-2.53-2.41-5.26 0.206 0.908 0.412 1.82 0.625 2.75 0.388 3.36 0.179 4.49-1.62 7.25-0.0619-0.66-0.124-1.32-0.188-2-0.96-3.54-2.6-6.02-4.66-9.04-1.18-2-1.71-3.7-2.16-5.96h-2v-3h-2v-2h-3v-2c1.32 0.33 2.64 0.66 4 1 0.495-0.99 0.495-0.99 1-2-0.66-0.33-1.32-0.66-2-1v-4c-0.0619-0.969-0.124-1.94-0.188-2.94 0.0125-5.73 1.18-11.7 3.19-17.1 2.11-1.39 2.11-1.39 4-2-0.33-1.32-0.66-2.64-1-4-1.98 0.99-1.98 0.99-4 2v3c-2.97 0.495-2.97 0.495-6 1-1.01 6.68-1.13 13.2-1.1 19.9 0.00212 1.68 0.00212 1.68 0.00429 3.4 0.00557 3.56 0.0181 7.11 0.0309 10.7 0.00502 2.42 0.00958 4.84 0.0137 7.26 0.011 5.91 0.0277 11.8 0.0488 17.7-0.99-0.33-1.98-0.66-3-1-1.46-2.93-1.34-5.67-1.54-8.94-0.065-1.06-0.065-1.06-0.131-2.13-0.52-8.64-0.949-17.3-1.33-25.9-0.032-0.699-0.0639-1.4-0.0969-2.12-0.191-4.27-0.316-8.54-0.403-12.8-0.0639-1.6-0.0639-1.6-0.129-3.24-0.0249-2.74 0.0172-5.15 0.629-7.82 3.56-3.47 7.21-4.59 12-5.62 3.02-0.669 5.94-1.35 8.88-2.34 3.66-1.21 7.37-2.06 11.1-2.91 6.46-1.48 12.8-3.18 19.2-5.05 5.63-1.58 11.3-2.96 17-4.32 0.814-0.199 1.63-0.397 2.47-0.602 1.08-0.26 1.08-0.26 2.19-0.526 2.47-0.706 4.79-1.66 7.18-2.62 1.49-0.454 2.98-0.878 4.49-1.28 0.961-0.256 1.92-0.513 2.91-0.777 1.19-0.312 2.38-0.624 3.6-0.946 1.57-0.413 3.13-0.826 4.7-1.24 4.54-1.2 9.09-2.39 13.6-3.58 2.86-0.747 5.71-1.5 8.57-2.24 1.84-0.481 3.68-0.962 5.51-1.44 0.843-0.221 1.69-0.442 2.55-0.669 3.83-1 7.65-1.99 11.5-2.94 2.58-0.649 4.99-1.34 7.47-2.26 5.11-1.76 10.3-2.92 15.6-4.09 3.66-0.827 7.27-1.75 10.9-2.85 7.11-2.17 14.3-4.08 21.5-6.02 2.45-0.662 4.9-1.33 7.34-1.99 8.01-2.17 16-4.26 24.1-6 2.68-0.678 5.12-1.63 7.68-2.68 1.78-0.315 3.58-0.583 5.38-0.812 4.67-0.73 8.91-1.87 13.4-3.44 6.85-2.39 13.8-4.25 20.8-6 1.04-0.258 2.07-0.516 3.14-0.782 4.75-1.16 9.46-2.27 14.3-2.97-1.49 0.99-1.49 0.99-3 2h6v2c2.97 0.33 5.94 0.66 9 1 0.33-1.32 0.66-2.64 1-4 1.24 0.278 1.24 0.278 2.5 0.562 4.12 0.515 7.41 0.0724 11.5-0.562 0.33 0.99 0.66 1.98 1 3 0.701-0.309 1.4-0.619 2.12-0.938 5.24-1.94 10.2-2.16 15.8-2.06 9.95 0.294 9.95 0.294 19.1-3 2-1 2-1 5-1z" fill="#55A925"/>
<path transform="translate(814,157)" d="m0 0c3.05 1.15 5.91 2.59 8.81 4.06 6.61 3.25 13.3 6.31 20.1 9.12 5.33 2.2 10.6 4.46 15.8 6.94 5.38 2.53 10.9 4.64 16.4 6.69 23.3 8.58 23.3 8.58 29.9 15.2 0.825 0.309 1.65 0.619 2.5 0.938 2.89 1.23 3.91 2.39 5.5 5.06v2c0.66 0.33 1.32 0.66 2 1 0.66 0.66 1.32 1.32 2 2 2.7 0.0858 5.31 0.096 8 0h3c-0.99 1.32-1.98 2.64-3 4h2v-2c0.99 0.33 1.98 0.66 3 1v3c0.99-0.33 1.98-0.66 3-1 0.33 0.66 0.66 1.32 1 2 1.41-0.0522 1.41-0.0522 2.85-0.105 1.87-0.0406 1.87-0.0406 3.77-0.082 1.23-0.0348 2.46-0.0696 3.73-0.105 3.91 0.314 6.29 1.32 9.65 3.29v1c2.97 0.495 2.97 0.495 6 1v1c-2.64 0.33-5.28 0.66-8 1v2c0.859 0.112 1.72 0.224 2.6 0.34 3.53 0.687 6.47 1.79 9.77 3.22 1.06 0.455 2.12 0.91 3.21 1.38 0.797 0.349 1.59 0.699 2.41 1.06v2c1.15 0.103 2.31 0.206 3.5 0.312 3.76 0.47 6.98 1.45 10.5 2.87 2.09 0.849 4.2 1.58 6.33 2.32 3.26 1.32 4.55 1.92 6.69 4.5v2c2.64 1.94 4.47 2.95 7.75 3.25 4.94 1.14 8.8 4.06 12.2 7.75 0.762 2.73 0.762 2.73 1 5-1.98-1.32-3.96-2.64-6-4 0.495 0.454 0.99 0.908 1.5 1.38 1.5 1.62 1.5 1.62 1.5 3.62h2c0.33 0.99 0.66 1.98 1 3-2.88 3.31-4.62 4.61-9 5-3 0.0657-6 0.0589-9 0v-2c-4.81 0.614-9.32 1.55-14 2.89-0.665 0.0361-1.33 0.0722-2.02 0.109-1.54-1.38-1.54-1.38-3-3-2.31-0.744-4.64-1.42-7-2-0.33-1.65-0.66-3.3-1-5-0.949-0.124-1.9-0.248-2.88-0.375-1.38-0.208-2.75-0.417-4.12-0.625-0.714-0.0877-1.43-0.175-2.16-0.266-7-1.08-13-3.94-19.3-7.02-2.78-1.34-5.51-2.52-8.39-3.59-5.74-2.2-11.2-5.09-16.6-7.95-0.735-0.379-1.47-0.758-2.23-1.15-0.649-0.341-1.3-0.682-1.97-1.03-2.71-1.12-5.46-1.73-8.31-2.41-3.39-0.942-6.46-2.43-9.61-3.96-1.03-0.492-1.03-0.492-2.09-0.994-2.22-1.06-4.43-2.12-6.65-3.19-3.06-1.46-6.13-2.92-9.2-4.38-0.748-0.357-1.5-0.713-2.27-1.08-5.77-2.75-11.6-5.39-17.4-7.98-5.7-2.53-11.3-5.17-16.9-8-6.11-3.08-12.2-6.1-18.4-9-0.817-0.398-1.63-0.797-2.47-1.21-5.25-2.42-10.3-4.41-16.1-2.79-3.34 2.19-6 4.87-8.75 7.75-1.45 1.45-2.9 2.91-4.36 4.36-0.676 0.686-1.35 1.37-2.05 2.08-2.15 2.12-4.47 3.95-6.84 5.81-1.69 1.65-3.35 3.31-5 5-0.874 0.862-1.75 1.72-2.65 2.61-4.72 4.67-9.31 9.38-13.6 14.4-1.92 2.15-3.96 4.13-6.04 6.13-5.52 5.47-10.1 11.6-14.7 17.8-0.409 0.553-0.817 1.11-1.24 1.68-5.66 7.69-11 15.6-16.1 23.6-4.82 7.56-4.82 7.56-6.67 9.68h-2c-0.33 0.99-0.66 1.98-1 3-1.65 0.33-3.3 0.66-5 1 0.468-6.46 2.15-11.2 5.02-17 0.407-0.842 0.815-1.68 1.23-2.55 1.32-2.71 2.66-5.42 4-8.12 0.454-0.923 0.909-1.85 1.38-2.8 6.74-13.7 13.8-26.9 22.4-39.5 0.537-0.799 1.07-1.6 1.63-2.42 3.24-4.82 6.53-9.6 9.84-14.4 1.47-2.13 2.91-4.28 4.33-6.43 6.38-9.6 13.5-18.2 21.2-26.8 1.01-1.13 2.02-2.26 3.02-3.39 4.26-4.75 8.52-9.34 13.5-13.4 1.52-1.26 2.91-2.66 4.31-4.05 3.9-3.9 7.06-3.34 12.2-2.19z" fill="#54A925"/>
<path transform="translate(543,325)" d="m0 0c4.88 2.75 4.88 2.75 6 5 2.02 0.652 2.02 0.652 4 1-1.33 3.59-2.83 6.84-5 10h-2v5c1.22-0.0206 2.43-0.0412 3.69-0.0625 3.23-0.00574 6.16 0.275 9.31 1.06-0.99 0.495-0.99 0.495-2 1-0.652 2.02-0.652 2.02-1 4 1.03-0.186 2.06-0.371 3.12-0.562 3.88-0.438 3.88-0.438 6.94 0.188 3.81 0.486 5.7-0.698 8.94-2.62-2.31-0.33-4.62-0.66-7-1v-1c16.9-2.18 16.9-2.18 20.8 0.00391 3.24 1.47 6.45 1.21 9.94 1.12 1.05-0.0135 1.05-0.0135 2.11-0.0273 1.71-0.0235 3.42-0.0593 5.14-0.0977-1.49-0.495-1.49-0.495-3-1v-2c2.12-0.0269 4.25-0.0464 6.38-0.0625 1.18-0.0116 2.37-0.0232 3.59-0.0352 3.04 0.0977 3.04 0.0977 5.04 1.1v-3h7v-2c-1.65-0.33-3.3-0.66-5-1v-2h5v2h6v1c3.63 0.33 7.26 0.66 11 1v2c0.686 0.0553 1.37 0.111 2.08 0.168 3.1 0.252 6.2 0.511 9.3 0.77 1.08 0.087 2.16 0.174 3.27 0.264 1.03 0.087 2.06 0.174 3.12 0.264 0.953 0.0786 1.91 0.157 2.89 0.238 2.34 0.297 2.34 0.297 4.34 1.3v2h11c-0.33 0.66-0.66 1.32-1 2-2.07 0.414-2.07 0.414-4.56 0.625-0.826 0.0748-1.65 0.15-2.5 0.227-0.957 0.0735-0.957 0.0735-1.93 0.148 0.999 0.326 2 0.652 3.03 0.988 1.3 0.441 2.61 0.882 3.91 1.32 0.989 0.32 0.989 0.32 2 0.646 1.72 0.591 3.4 1.31 5.06 2.04 0.33 0.99 0.66 1.98 1 3 0.66-0.99 1.32-1.98 2-3h2c0.99 2.97 0.99 2.97 2 6 0.722-0.227 1.44-0.454 2.19-0.688 3.57-0.396 4.95 0.644 7.81 2.69 0.33-0.66 0.66-1.32 1-2 3.56 0.61 6.68 1.58 10 3-0.99 0.99-0.99 0.99-2 2 1.32 0.66 2.64 1.32 4 2v2h9c0.33 0.99 0.66 1.98 1 3 0.99-0.66 1.98-1.32 3-2 0.99 2.97 0.99 2.97 2 6-10.8-0.465-21.3-1.23-32-3-1.04-0.165-2.07-0.33-3.14-0.5-2.86-0.5-2.86-0.5-4.53-0.973-3.42-0.777-6.89-1.1-10.4-1.46-1.17-0.127-1.17-0.127-2.36-0.258-2.49-0.271-4.97-0.538-7.46-0.805-2.48-0.267-4.96-0.535-7.44-0.805-1.54-0.168-3.08-0.334-4.62-0.498-4.05-0.44-8.05-0.985-12.1-1.7-1.02-0.178-2.04-0.357-3.09-0.541-1.63-0.287-1.63-0.287-3.29-0.58-12.9-2.24-25.7-4.36-38.7-5.25-4.9-0.349-9.19-1.18-13.9-2.63-1.62-0.234-3.24-0.43-4.88-0.562-4.02-0.334-4.02-0.334-5.12-1.44-2.65-0.317-2.65-0.317-5.75-0.375-1.05-0.049-2.09-0.098-3.17-0.148-5.13 0.872-7.18 4.29-10.1 8.34-11.5 18.1-21.5 36.7-30.5 56.1-1.25 2.68-2.51 5.35-3.78 8.01-6.98 14.9-13.2 31.4-15.1 47.8-0.587 3.39-1.61 5.45-3.56 8.25-2.47-1.15-4.05-2.05-6-4-0.0644-2.64 0.00335-5.13 0.188-7.75 0.0512-0.79 0.102-1.58 0.155-2.39 0.981-13.6 2.46-27.3 6.57-40.3 1.04-3.38 1.93-6.76 2.8-10.2 8.39-33.2 21.7-65.9 37.3-96.3z" fill="#55A925"/>
<path transform="translate(1105,432)" d="m0 0c0.495 0.99 0.495 0.99 1 2-0.938 2.12-0.938 2.12-2 4h-2v3c1.32 0.66 2.64 1.32 4 2h-2c0.191 0.846 0.382 1.69 0.578 2.56 2.24 11.4 2.24 11.4-1.24 17-2.2 2.4-4.17 2.95-7.34 3.46-3.38 0.125-3.38 0.125-6 0v-5h-2c0.495 5.44 0.495 5.44 1 11 1.32-0.33 2.64-0.66 4-1 1.08 3.23 0.949 4.98-0.312 8.12-0.264 0.683-0.529 1.37-0.801 2.07-0.887 1.8-0.887 1.8-2.89 3.8-0.289 0.969-0.578 1.94-0.875 2.94-1.22 3.33-2.09 4.35-5.12 6.06h-2v2h-2c-0.33 2.31-0.66 4.62-1 7h-3v2c-0.99 0.495-0.99 0.495-2 1v3c0.66 0.33 1.32 0.66 2 1-0.639 0.763-1.28 1.53-1.94 2.31-3.02 4.43-2.88 9.48-3.06 14.7h-2c-0.0825 0.681-0.165 1.36-0.25 2.06-0.976 3.82-2.71 6.56-4.75 9.94-0.33 0.66-0.66 1.32-1 2h-4c-1.46 2.65-2 3.89-2 7-0.495 1.49-0.495 1.49-1 3h-3c0.33 0.99 0.66 1.98 1 3h-5c0.0232 0.626 0.0464 1.25 0.0703 1.9 0.018 0.817 0.0361 1.63 0.0547 2.48 0.0232 0.812 0.0464 1.62 0.0703 2.46-0.195 2.16-0.195 2.16-2.2 4.16-1.22 0.371-2.43 0.743-3.69 1.12-5.23 1.9-8.31 5.27-11.3 9.88-0.983 2.28-1.72 4.52-2.39 6.91-0.842 2.89-2.22 5.43-3.61 8.09-0.551 1.27-1.09 2.54-1.62 3.81-1.38 3.19-1.38 3.19-2.38 4.19-0.0825 1.11-0.165 2.23-0.25 3.38-0.75 3.62-0.75 3.62-3.19 5.56-2.56 1.06-2.56 1.06-4.56 1.06-0.289 0.619-0.577 1.24-0.875 1.88-1.12 2.12-1.12 2.12-3.12 4.12-2.82 0.414-2.82 0.414-6.12 0.625-1.64 0.112-1.64 0.112-3.32 0.227-1.26 0.0735-1.26 0.0735-2.55 0.148v3h-3v-2c-0.66-0.33-1.32-0.66-2-1v3h-3c0.186-0.578 0.371-1.15 0.562-1.75 0.478-2.46 0.195-3.89-0.562-6.25-0.66 0.33-1.32 0.66-2 1 0.634-4.32 2.17-7.74 4.11-11.6 0.474-0.958 0.474-0.958 0.957-1.93 1.03-2.08 2.08-4.16 3.12-6.23 0.534-1.07 0.534-1.07 1.08-2.15 6.23-12.4 12.9-24.5 20.1-36.3 1.75-2.91 3.45-5.85 5.16-8.79 7.97-13.7 16.6-26.8 25.9-39.7 1.67-2.35 3.32-4.73 4.96-7.11 7.29-10.6 14.9-20.8 22.8-30.9 3.09-3.92 6.15-7.87 9.22-11.8 1.64-2.1 3.27-4.21 4.91-6.31 1.17-1.5 2.32-3.01 3.48-4.53 0.606-0.793 1.21-1.59 1.84-2.4 0.545-0.718 1.09-1.44 1.65-2.18 2.59-3.1 5.53-5.51 8.69-8.02z" fill="#579F31"/>
<path transform="translate(646 332)" d="m0 0c1.91 0.137 1.91 0.137 3.86 0.277 9.4 0.707 9.4 0.707 12.8 1.85 1.62 0.19 3.24 0.336 4.86 0.456 0.986 0.0753 1.97 0.151 2.99 0.228 1.07 0.0784 2.14 0.157 3.24 0.237 2.29 0.176 4.58 0.352 6.87 0.529 1.76 0.136 1.76 0.136 3.56 0.274 9.69 0.763 19.4 1.65 29 2.52 1.16 0.104 2.32 0.209 3.51 0.316 20.9 1.89 41.8 4.06 62.6 6.38 11.6 1.29 23.3 2.4 34.9 3.29 10.8 0.835 21.5 2 32.2 3.19 22.7 2.52 45.4 4.79 68.2 6.83 9.67 0.877 19.3 1.86 28.9 3.18 14.6 1.99 29.2 3.23 43.8 4.54 3.77 0.339 7.54 0.683 11.3 1.03 7.33 0.667 14.7 1.33 22 1.99v2c-1.13 0.289-2.27 0.577-3.44 0.875-1.18 0.371-2.35 0.743-3.56 1.12-0.33 0.66-0.66 1.32-1 2-1.88 0.75-1.88 0.75-4 1-0.99-0.66-1.98-1.32-3-2-2.02-0.453-2.02-0.453-4.23-0.633-0.802-0.0838-1.6-0.168-2.43-0.254-0.833-0.0786-1.67-0.157-2.53-0.238-0.845-0.0864-1.69-0.173-2.56-0.262-2.08-0.212-4.17-0.414-6.25-0.613v2c2.02 0.163 4.04 0.326 6.05 0.488 1.95 0.512 1.95 0.512 3.95 3.51-1.48 0.495-1.48 0.495-3 1-0.99-0.66-1.98-1.32-3-2 1.21 2.42 2.22 2.85 4.56 4.12 1.13 0.619 2.27 1.24 3.44 1.88 0.33-0.66 0.66-1.32 1-2 0.866 1.18 0.866 1.18 1.75 2.38 2.08 2.43 3.34 3.48 6.25 4.62v1c-6.63 0.612-10.6 0.15-16-3.76-2.9-1.79-5.81-2.3-9.14-2.88-1.88-0.359-1.88-0.359-3.88-1.36v-2h-4c-0.33-1.65-0.66-3.3-1-5h2v-2c-4.53-0.934-4.53-0.934-9 0-0.33-0.66-0.66-1.32-1-2-2.52-0.566-2.52-0.566-5.57-0.852-1.12-0.129-2.25-0.258-3.41-0.391-1.18-0.126-2.37-0.253-3.59-0.383-1.19-0.134-2.38-0.268-3.6-0.406-2.95-0.331-5.89-0.654-8.84-0.969 0.184 0.757 0.369 1.51 0.559 2.29 0.556 3.41-0.305 5.54-1.56 8.71h-2c-0.33 0.66-0.66 1.32-1 2v-3c-0.66-0.33-1.32-0.66-2-1-0.66-0.33-1.32-0.66-2-1-1.88 0.531-1.88 0.531-3.96 1.39-5.22 1.84-10.1 2.15-15.6 2.29-0.913 0.0342-1.83 0.0683-2.77 0.104-2.22 0.0815-4.45 0.151-6.67 0.209v-1c-6.05-0.219-11.3-0.182-17 2-0.33 0.66-0.66 1.32-1 2 0.99 0.33 1.98 0.66 3 1-2.97-0.33-5.94-0.66-9-1v-3c-1.32-0.33-2.64-0.66-4-1 0.99-0.33 1.98-0.66 3-1 0.33-0.66 0.66-1.32 1-2-1.32-0.33-2.64-0.66-4-1v-2c-4.95-0.33-9.9-0.66-15-1l6 3v1c-37.6 0.529-37.6 0.529-43.6-3.97-4.84-2.91-9.51-3.17-15.1-3.71-1.1-0.121-2.2-0.242-3.33-0.367-7.73-0.816-15.5-1.38-23.2-1.66-3.15-0.115-5.74-0.286-8.75-1.29-1.89-0.222-3.79-0.406-5.69-0.562-0.994-0.0838-1.99-0.168-3.01-0.254-1.14-0.0909-1.14-0.0909-2.3-0.184 0.99-2.48 0.99-2.48 2-5-2.31-0.66-4.62-1.32-7-2v-2c-1.07 0.29-1.07 0.29-2.15 0.586-3.27 0.475-5.27-0.00785-8.41-0.961-0.929-0.276-1.86-0.552-2.82-0.836-0.865-0.26-1.73-0.521-2.62-0.789-1.33-0.342-2.66-0.679-4-1v-3h3v-3c-1.08 0.0116-2.15 0.0232-3.26 0.0352-24.3 0.182-24.3 0.182-28.7-2.04-3.11-0.314-6.23-0.511-9.35-0.719-2.65-0.281-2.65-0.281-3.65-1.28-2.08 0.0172-4.16 0.0355-6.24 0.0586-5.15-0.109-10.2-0.877-15.3-1.56-1.1-0.143-2.21-0.286-3.35-0.434-2.7-0.35-5.4-0.706-8.09-1.07v-2c-0.546 0.0174-1.09 0.0348-1.66 0.0527-7.9 0.135-15.6-0.689-23.5-1.55-1.35-0.145-2.7-0.29-4.05-0.434-3.27-0.351-6.55-0.706-9.82-1.07v-1c7.52-1.34 14.7-0.725 22.3-0.125z" fill="#56A52E"/>
<path transform="translate(553,513)" d="m0 0c-0.33 0.99-0.66 1.98-1 3-1.79 0.66-1.79 0.66-4.06 1.06-1.21 0.236-1.21 0.236-2.44 0.477-0.824 0.152-1.65 0.304-2.5 0.461-2.75 0.542-5.31 1.18-8 2-0.33 0.99-0.66 1.98-1 3-0.66 0.33-1.32 0.66-2 1v4c-0.961 0.182-0.961 0.182-1.94 0.367-5.11 0.989-10.1 2.15-15.1 3.63-7.66 2.17-7.66 2.17-10 1v2c-2.29 0.629-4.58 1.25-6.88 1.88-0.632 0.174-1.26 0.348-1.91 0.527-3.57 0.965-7.14 1.8-10.8 2.49-6.92 1.35-13.7 3.15-20.6 4.92-1.03 0.266-1.03 0.266-2.08 0.537-8.92 2.31-17.8 4.78-26.5 7.64-4.24 1.31-8.53 2.25-12.9 3.2-4 0.954-7.91 2.12-11.8 3.31-5.2 1.58-10.4 2.94-15.7 4-6.37 1.28-12.3 3.22-18.4 5.41-3.5 1.09-6.83 1.67-10.5 2.09 0.0412 0.784 0.0825 1.57 0.125 2.38-0.125 2.62-0.125 2.62-2.12 4.62-0.165 0.66-0.33 1.32-0.5 2-0.5 2-0.5 2-2.5 4-0.0585 2.47-0.0585 2.47 1 5 1.64 1.36 3.31 2.7 5 4v3l2 1c-0.0954 0.877-0.191 1.75-0.289 2.66-0.847 9.69-0.397 18.9 0.522 28.6 0.715 7.63 1.01 15.1 0.767 22.8h-2c-0.495-2.48-0.495-2.48-1-5-0.639-0.144-1.28-0.289-1.94-0.438-2.06-0.562-2.06-0.562-3.06-1.56-0.931-5.07-1.09-9.87-1-15h-2c-0.049-0.615-0.098-1.23-0.148-1.86-0.0748-0.808-0.15-1.62-0.227-2.45-0.0696-0.801-0.139-1.6-0.211-2.43-0.31-2.53-0.31-2.53-2.41-5.26 0.206 0.908 0.413 1.82 0.625 2.75 0.388 3.36 0.179 4.49-1.62 7.25-0.0619-0.66-0.124-1.32-0.188-2-0.96-3.54-2.6-6.02-4.66-9.04-1.18-2-1.71-3.7-2.16-5.96h-2v-3h-2v-2h-3v-2c1.32 0.33 2.64 0.66 4 1 0.495-0.99 0.495-0.99 1-2-0.66-0.33-1.32-0.66-2-1v-4c-0.0619-0.969-0.124-1.94-0.188-2.94 0.0125-5.73 1.18-11.7 3.19-17.1 2.11-1.39 2.11-1.39 4-2-0.33-1.32-0.66-2.64-1-4-1.32 0.66-2.64 1.32-4 2v3c-2.97 0.495-2.97 0.495-6 1-1.01 6.68-1.13 13.2-1.1 19.9 0.00212 1.68 0.00212 1.68 0.00429 3.4 0.00557 3.56 0.0181 7.11 0.0309 10.7 0.00502 2.42 0.00958 4.84 0.0137 7.26 0.011 5.91 0.0277 11.8 0.0488 17.7-0.99-0.33-1.98-0.66-3-1-1.46-2.93-1.34-5.67-1.54-8.94-0.0433-0.704-0.0867-1.41-0.131-2.13-0.52-8.64-0.949-17.3-1.33-25.9-0.032-0.699-0.0639-1.4-0.0969-2.12-0.191-4.27-0.316-8.54-0.403-12.8-0.0639-1.6-0.0639-1.6-0.129-3.24-0.0249-2.74 0.0172-5.15 0.629-7.82 3.56-3.47 7.21-4.59 12-5.62 3.02-0.669 5.94-1.35 8.88-2.34 3.66-1.21 7.37-2.06 11.1-2.91 6.46-1.48 12.8-3.18 19.2-5.05 5.63-1.58 11.3-2.96 17-4.32 0.814-0.199 1.63-0.397 2.47-0.602 1.08-0.26 1.08-0.26 2.19-0.526 2.47-0.706 4.79-1.66 7.18-2.62 1.49-0.454 2.98-0.878 4.49-1.28 0.961-0.256 1.92-0.513 2.91-0.777 1.19-0.312 2.38-0.624 3.6-0.946 1.57-0.413 3.13-0.826 4.7-1.24 4.54-1.2 9.09-2.39 13.6-3.58 2.86-0.747 5.71-1.5 8.57-2.24 1.84-0.481 3.68-0.962 5.51-1.44 0.843-0.221 1.69-0.442 2.55-0.669 3.83-1 7.65-1.99 11.5-2.94 2.58-0.649 4.99-1.34 7.47-2.26 5.11-1.76 10.3-2.92 15.6-4.09 4.52-1.02 8.93-2.25 13.4-3.61 6.44-1.92 12.9-3.7 19.4-5.48 1.69-0.467 3.39-0.938 5.08-1.41 2.47-0.693 4.94-1.37 7.41-2.05 0.752-0.214 1.5-0.429 2.28-0.65 3.99-1.07 6.97-1.59 11-0.334z" fill="#4F9F23"/>
<path transform="translate(902,196)" d="m0 0c5.74 1.84 11.4 3.85 17.1 5.94 0.99 0.361 0.99 0.361 2 0.729 3.3 1.23 6.46 2.56 9.58 4.19 5.2 2.66 10.6 4.71 16.1 6.84 11.4 4.45 22.6 9.11 33.8 14 9.53 4.17 19.1 8.24 28.7 12.1 6.03 2.45 12 4.97 18 7.54l2.59 1.12c0.871 0.375 1.74 0.75 2.64 1.14 17.9 7.71 35.9 15.2 53.9 22.6 8.35 3.45 16.7 6.91 25 10.4 1.08 0.458 2.15 0.915 3.26 1.39 2.18 0.928 4.36 1.86 6.54 2.79 6.49 2.76 13 5.36 19.6 7.87 5.17 2.01 10.3 4.18 15.4 6.36 2.27 0.964 4.53 1.93 6.8 2.89 1.15 0.49 2.3 0.981 3.49 1.49 3.53 1.5 7.07 2.99 10.6 4.48 1.15 0.485 2.3 0.969 3.48 1.47 2.18 0.919 4.36 1.84 6.55 2.75 4.95 2.09 9.86 4.22 14.7 6.46 3.82 1.75 7.64 3.34 11.6 4.77 6.42 2.42 12.5 5.38 18.6 8.56-5.91 1.97-11.3 0.0121-16.8-2.23-3.94-1.39-8.05-2.05-12.2-2.77 1.13 0.619 2.27 1.24 3.44 1.88 3.44 1.88 3.44 1.88 4.56 4.12-0.722-0.309-1.44-0.619-2.19-0.938-5.76-2.18-11.7-2.51-17.8-3.06-0.144-0.598-0.289-1.2-0.438-1.81-0.45-1.75-0.991-3.47-1.56-5.19 0.33-0.66 0.66-1.32 1-2-6.58-0.893-12.4-0.955-19 0-0.371-1.42-0.371-1.42-0.75-2.88-0.936-3.21-0.936-3.21-3.38-4.5-0.619-0.206-1.24-0.413-1.88-0.625 3-1 3-1 5-1-1.42-2.84-3.04-2.91-6-4-1.27-0.535-2.54-1.08-3.81-1.62-1.58-0.681-1.58-0.681-3.19-1.38 0.33 1.32 0.66 2.64 1 4-1.32-0.66-2.64-1.32-4-2-0.33 0.66-0.66 1.32-1 2 2.97 0.495 2.97 0.495 6 1-0.66 0.66-1.32 1.32-2 2-2.34-0.286-4.67-0.63-7-1-1.56 0.0447-3.13 0.108-4.69 0.188-3.43 0.0644-4.04 0.0272-6.88-2.19-0.474-0.66-0.949-1.32-1.44-2 0.33-0.66 0.66-1.32 1-2-1.73-3.65-3.19-5.56-7-7-0.99 0.66-1.98 1.32-3 2-1.11-0.928-1.11-0.928-2.25-1.88-2.24-1.73-4.19-2.99-6.75-4.12 0.66-0.66 1.32-1.32 2-2-0.33-0.99-0.66-1.98-1-3-0.66-0.33-1.32-0.66-2-1-0.33 0.99-0.66 1.98-1 3-1.65-0.33-3.3-0.66-5-1 0.66-0.66 1.32-1.32 2-2h-5v-2l-2 1c0.186 0.763 0.371 1.53 0.562 2.31 0.438 2.69 0.438 2.69-0.562 5.69-0.99-0.33-1.98-0.66-3-1 0.34-0.866 0.34-0.866 0.688-1.75 0.55-2.33 0.55-2.33-0.875-4.44-3.07-3.07-6.61-2.95-10.8-3.13-0.935-0.0419-1.87-0.0838-2.83-0.127-0.968-0.0393-1.94-0.0786-2.93-0.119-1.48-0.0648-1.48-0.0648-2.98-0.131-2.42-0.106-4.85-0.208-7.27-0.307v-2h2v-3h-3v2h-4c0.375-1.94 0.375-1.94 1-4 0.66-0.33 1.32-0.66 2-1v-3c-0.99 0.33-1.98 0.66-3 1v3c-2.97 0.495-2.97 0.495-6 1 0.33 1.32 0.66 2.64 1 4-9.58-0.523-15.9-4.89-23-11-2.22-1.28-2.22-1.28-4-2v-2h-2c-1.36-1.72-2.5-3.53-3.68-5.37-1.32-1.93-1.32-1.93-4.32-2.63v-5h-2v2c-2.31-0.33-4.62-0.66-7-1l2-2c-0.619-0.227-1.24-0.454-1.88-0.688-2.12-1.31-2.12-1.31-3.06-3.88-0.351-0.804-0.701-1.61-1.06-2.44-2.31-0.696-2.31-0.696-5-1-3.07-1.41-5.9-2.94-8.75-4.75-0.743-0.412-1.49-0.825-2.25-1.25l-2 1v-2h-5v-2l-3.91-0.781c-5.89-1.31-11.4-3.46-17-5.65-5.22-1.99-10.5-3.91-16.1-4.57l-2 1c-0.99-0.33-1.98-0.66-3-1v-2c0.66-0.33 1.32-0.66 2-1-2.14-3.22-3.17-3.73-6.8-4.67-3.55-0.536-7.07-0.369-10.7-0.207-2.71-0.133-4.24-0.742-6.55-2.12v-2c-0.66-0.33-1.32-0.66-2-1-0.33 0.33-0.66 0.66-1 1h-2c0.33-1.32 0.66-2.64 1-4-0.33 0.33-0.66 0.66-1 1-7.09 0.465-7.09 0.465-10.3-1.19-2.4-2.58-4.69-5.18-4.69-8.81-1.13-0.268-2.27-0.536-3.44-0.812-1.18-0.392-2.35-0.784-3.56-1.19-0.33-0.99-0.66-1.98-1-3zm208 95c1.48 0.99 1.48 0.99 3 2-1.32 0.33-2.64 0.66-4 1 0.33-0.99 0.66-1.98 1-3z" fill="#56A42F"/>
<path transform="translate(820,439)" d="m0 0v2c-0.639 0.124-1.28 0.248-1.94 0.375-0.681 0.206-1.36 0.413-2.06 0.625-0.33 0.66-0.66 1.32-1 2l4 1v2c3.01 0.934 3.87 1.04 7 0v3c-0.33 0.33-0.66 0.66-1 1 0.409 2.05 0.409 2.05 1 4-1.98 0.66-3.96 1.32-6 2v-2c-1.07 0.165-2.14 0.33-3.25 0.5-3.75 0.5-3.75 0.5-7.75 0.5 0.66 0.33 1.32 0.66 2 1v3c-1.6 0.505-3.21 1-4.81 1.5-0.893 0.278-1.79 0.557-2.71 0.844-2.58 0.682-4.83 0.656-7.48 0.656v-3c1.32-0.66 2.64-1.32 4-2h-9v2h-6v3c-0.967 0.17-1.93 0.34-2.93 0.516-6.9 1.27-13.3 2.69-19.8 5.5-9.27 3.98-9.27 3.98-13.3 3.98v3c-4.89 2.21-11 4.62-16.3 3.53-3.35-0.665-6.32-0.422-9.72-0.152-1.21 0.0902-2.42 0.18-3.66 0.273-2.56 0.274-4.81 0.701-7.28 1.35-0.804-0.0412-1.61-0.0825-2.44-0.125-3.24 0.158-4.82 1.45-7.56 3.12-1.99 0.366-3.99 0.701-6 1-1.33 0.666-2.67 1.33-4 2-1.47 0.448-2.96 0.853-4.45 1.22-0.849 0.21-1.7 0.42-2.57 0.637-0.88 0.213-1.76 0.425-2.67 0.645-0.86 0.213-1.72 0.425-2.61 0.645-4.17 1.02-8.35 2-12.5 2.91-3.09 0.679-6.05 1.49-9.04 2.57-2.68 0.969-4.22 1.38-7.12 1.38-0.33-0.66-0.66-1.32-1-2-6.43 0.495-6.43 0.495-13 1-0.33-0.66-0.66-1.32-1-2-0.33 1.65-0.66 3.3-1 5-2.97-0.66-5.94-1.32-9-2v-2c-3.47 0.495-3.47 0.495-7 1 0.33-0.66 0.66-1.32 1-2h3v-2c5.56-1.49 11.1-2.99 16.7-4.48 1.89-0.506 3.77-1.01 5.66-1.52 2.74-0.735 5.48-1.47 8.22-2.2 0.903-0.242 1.81-0.485 2.74-0.734 5.17-1.39 10.3-2.77 15.5-4.14 7.91-2.11 15.8-4.26 23.7-6.42 2.78-0.761 5.56-1.52 8.34-2.28 1.02-0.28 1.02-0.28 2.07-0.565 3.32-0.907 6.65-1.81 9.98-2.68 8.27-2.18 16.5-4.51 24.7-6.97 16.2-4.85 32.5-9.42 48.8-13.9 2.21-0.601 4.41-1.2 6.62-1.81 3.21-0.882 6.43-1.76 9.64-2.63 0.985-0.272 1.97-0.544 2.99-0.824 0.916-0.247 1.83-0.495 2.77-0.75 0.802-0.219 1.6-0.438 2.43-0.663 2.21-0.467 2.21-0.467 6.21-0.467z" fill="#56A42F"/>
<path transform="translate(532,348)" d="m0 0h2c0.495 2.48 0.495 2.48 1 5l2-1c-0.566 7.21-2.16 14.3-5 21-0.99 0.33-1.98 0.66-3 1 0.282 1.31 0.576 2.63 0.875 3.94 0.162 0.731 0.325 1.46 0.492 2.21 0.462 2.05 0.462 2.05 2.63 2.85 0.125 5.75 0.125 5.75-1 8h7c-1.25 3.24-2.62 6.34-4.21 9.42-19.2 37.1-19.2 37.1-29.2 77.3-0.587 3.39-1.61 5.45-3.56 8.25-2.47-1.15-4.05-2.05-6-4-0.0644-2.64 0.00335-5.13 0.188-7.75 0.0512-0.79 0.102-1.58 0.155-2.39 0.981-13.6 2.46-27.3 6.57-40.3 1.04-3.38 1.93-6.76 2.8-10.2 6.38-25.3 16.2-49.4 26.3-73.3z" fill="#4E9F22"/>
<path transform="translate(773,202)" d="m0 0c2.76 2.76 2.58 5.21 3 9h4v-2h-2c0.278-0.928 0.278-0.928 0.562-1.88 0.674-2.17 0.674-2.17-0.562-4.12 0.99 0.33 1.98 0.66 3 1v2c0.99 0.33 1.98 0.66 3 1v2h-3v2c0.784-0.206 1.57-0.412 2.38-0.625 1.3-0.186 1.3-0.186 2.62-0.375l2 2c-3.16 3.27-6.46 6.31-9.88 9.31-3.85 3.43-7.29 6.99-10.6 10.9-2.62 3.07-5.53 5.84-8.46 8.61-6.42 6.2-11.8 13-17 20.2-0.409 0.553-0.817 1.11-1.24 1.68-5.66 7.69-11 15.6-16.1 23.6-4.82 7.56-4.82 7.56-6.67 9.68h-2c-0.33 0.99-0.66 1.98-1 3-2.48 0.495-2.48 0.495-5 1 0.468-6.46 2.15-11.2 5.02-17 0.407-0.842 0.815-1.68 1.23-2.55 1.32-2.71 2.66-5.42 4-8.12 0.454-0.923 0.909-1.85 1.38-2.8 6.74-13.7 13.8-26.9 22.4-39.5 1.18-1.76 2.36-3.53 3.54-5.29 8.88-13.2 8.88-13.2 13.5-18.7 0.66 0.33 1.32 0.66 2 1v1h7v-3c1.5-1.69 1.5-1.69 3-3z" fill="#4E9F22"/>
<path transform="translate(1025,646)" d="m0 0h2v2h3c-0.596 3.54-1.54 6.49-3.07 9.74-0.417 0.894-0.834 1.79-1.26 2.71-0.445 0.945-0.89 1.89-1.35 2.86-3.57 7.72-6.86 15.4-9.74 23.4-1.33 3.64-2.76 7.22-4.23 10.8-4.7 11.5-8.88 23.2-12.9 34.9-1.1 3.18-2.21 6.35-3.32 9.52-3.52 10.1-6.92 20.2-9.47 30.6-0.911 3.57-1.59 6.16-4.62 8.42-0.33-0.99-0.66-1.98-1-3 0.495-0.99 0.495-0.99 1-2-0.165-0.639-0.33-1.28-0.5-1.94-0.5-2.06-0.5-2.06 0.5-5.06-1.65 0.99-3.3 1.98-5 3v-3c-1.65 1.32-3.3 2.64-5 4 0.33 1.32 0.66 2.64 1 4-1.98 0.99-1.98 0.99-4 2-0.289-4.92-0.277-8.16 3-12 2.62-0.75 2.62-0.75 5-1 0.495-0.495 0.495-0.495 1-1-0.0537-1.49-0.181-2.99-0.34-4.47-0.0935-0.899-0.187-1.8-0.283-2.72-0.104-0.946-0.208-1.89-0.314-2.87-0.0999-0.949-0.2-1.9-0.303-2.88-0.248-2.35-0.502-4.71-0.76-7.06h4v4c0.742-0.186 1.49-0.371 2.25-0.562 2.7-0.43 4.2-0.289 6.75 0.562 0.495-1.49 0.495-1.49 1-3-1.49-0.495-1.49-0.495-3-1 1.49-0.495 1.49-0.495 3-1v-3c-1.98-0.66-3.96-1.32-6-2v-2h-3v2h-2v-3c1.49-0.99 1.49-0.99 3-2 0.522-2.69 0.881-5.22 1.12-7.94 0.786-7.79 0.786-7.79 1.88-11.1 2.48-0.495 2.48-0.495 5-1 0.0735-0.853 0.0735-0.853 0.148-1.72 0.483-4.99 1.33-9.5 2.85-14.3h2c0.33-0.66 0.66-1.32 1-2v2h4v-2h3v-6h-4c-0.364-1.6-0.716-3.21-1.06-4.81-0.197-0.893-0.394-1.79-0.598-2.71-0.34-2.48-0.34-2.48 0.66-5.48 0.66 0.33 1.32 0.66 2 1-0.33 0.66-0.66 1.32-1 2h3v-3h7c0.309-0.639 0.619-1.28 0.938-1.94 1.06-2.06 1.06-2.06 2.06-3.06 2-0.0408 4-0.0425 6 0 0.144-0.763 0.289-1.53 0.438-2.31 0.562-2.69 0.562-2.69 1.56-5.69h2c0.33-2.31 0.66-4.62 1-7h3c0.33-3.63 0.66-7.26 1-11z" fill="#56A62E"/>
<path transform="translate(832,625)" d="m0 0h1c0.0606 1.13 0.121 2.26 0.184 3.43 0.0844 1.48 0.169 2.96 0.254 4.45 0.0393 0.746 0.0786 1.49 0.119 2.26 0.159 4.06 0.159 4.06 1.44 7.86 0.0308 2.08-0.0662 4.14-0.16 6.22 0.143 2.49 0.53 4.58 1.1 6.99 1.11 4.74 1.67 9.44 2.12 14.3 0.157 1.59 0.315 3.19 0.473 4.78 0.115 1.17 0.115 1.17 0.231 2.36 0.719 8.04 0.719 8.04 2.36 15.9 0.839 3.6 0.866 6.56 0.227 10.2-0.582 3.63-0.736 7.3-0.973 11-0.188 1.1-0.188 1.1-0.379 2.22-0.99 0.495-0.99 0.495-2 1v7c1.49-0.99 1.49-0.99 3-2v11c-3.22-1.61-3.65-4.79-5-8-0.66-0.66-1.32-1.32-2-2v-3c-0.557-0.227-1.11-0.454-1.69-0.688-4.2-2.38-7.65-5.73-9.31-10.3-0.911-4.48-1.09-8.67-1.03-13.2 0.0127-1.39 0.025-2.79 0.0371-4.18 0.0247-2.16 0.0526-4.33 0.0862-6.49 0.234-12.2 0.234-12.2-2.1-24.1-0.33-0.33-0.66-0.66-1-1-0.945-5.87-1.13-11.6-1.06-17.5 0.00451-0.822 0.00902-1.64 0.0137-2.49 0.0116-2 0.0296-4.01 0.0488-6.01 0.289 0.598 0.577 1.2 0.875 1.81 1.17 2.38 1.17 2.38 3.12 5.19 0.33-0.66 0.66-1.32 1-2-0.66-0.33-1.32-0.66-2-1h4l1 1 2-2v3h3c0.33-5.28 0.66-10.6 1-16z" fill="#56A42F"/>
<path transform="translate(762,456)" d="m0 0c-0.598 0.268-1.2 0.536-1.81 0.812-2.22 1.02-2.22 1.02-3.44 2.75-2.37 1.95-4.65 1.92-7.63 2.2-3.17 0.362-6.09 1.27-9.12 2.24-0.928 0.227-1.86 0.454-2.81 0.688-2.56 1.2-2.56 1.2-3.12 4.62-1.06 3.67-2.03 5.4-5.08 7.69-4.05 2.04-8.54 2.38-13 3-0.721 0.183-1.44 0.366-2.18 0.555-1.82 0.445-1.82 0.445-4.25 0.32-3.24 0.158-4.82 1.45-7.56 3.12-1.99 0.366-3.99 0.701-6 1-1.33 0.666-2.67 1.33-4 2-1.47 0.448-2.96 0.853-4.45 1.22-0.849 0.21-1.7 0.42-2.57 0.637-0.88 0.213-1.76 0.425-2.67 0.645-0.86 0.213-1.72 0.425-2.61 0.645-4.17 1.02-8.35 2-12.5 2.91-3.09 0.679-6.05 1.49-9.04 2.57-2.68 0.969-4.22 1.38-7.12 1.38-0.33-0.66-0.66-1.32-1-2-6.43 0.495-6.43 0.495-13 1-0.33-0.66-0.66-1.32-1-2-0.33 1.65-0.66 3.3-1 5-2.97-0.66-5.94-1.32-9-2v-2c-3.47 0.495-3.47 0.495-7 1 0.33-0.66 0.66-1.32 1-2h3v-2c5.56-1.49 11.1-2.99 16.7-4.48 1.89-0.506 3.77-1.01 5.66-1.52 2.74-0.735 5.48-1.47 8.22-2.2 0.903-0.242 1.81-0.485 2.74-0.734 5.17-1.39 10.3-2.77 15.5-4.14 7.91-2.11 15.8-4.26 23.7-6.42 2.78-0.761 5.56-1.52 8.34-2.28 0.683-0.187 1.37-0.373 2.07-0.566 3.32-0.906 6.64-1.8 9.97-2.68 9.6-2.52 19.1-5.34 28.6-8.33 6.08-1.85 11.2-3.12 17.6-2.65z" fill="#579F31"/>
<path transform="translate(352,570)" d="m0 0c0.99 0.66 1.98 1.32 3 2 0.66-0.33 1.32-0.66 2-1 1.54-0.0695 3.08-0.0845 4.62-0.0625 1.23 0.0135 1.23 0.0135 2.48 0.0273 0.94 0.0174 0.94 0.0174 1.9 0.0352 0.625 2.38 0.625 2.38 1 5-0.66 0.66-1.32 1.32-2 2-0.165 0.66-0.33 1.32-0.5 2-0.5 2-0.5 2-2.5 4-0.0585 2.47-0.0585 2.47 1 5 1.64 1.36 3.31 2.7 5 4v3c0.66 0.33 1.32 0.66 2 1-0.143 1.31-0.143 1.31-0.289 2.66-0.847 9.69-0.397 18.9 0.522 28.6 0.715 7.63 1.01 15.1 0.767 22.8h-2c-0.33-1.65-0.66-3.3-1-5-0.639-0.144-1.28-0.289-1.94-0.438-2.06-0.562-2.06-0.562-3.06-1.56-0.931-5.07-1.09-9.87-1-15h-2c-0.049-0.615-0.098-1.23-0.148-1.86-0.0748-0.808-0.15-1.62-0.227-2.45-0.0696-0.801-0.139-1.6-0.211-2.43-0.31-2.53-0.31-2.53-2.41-5.26 0.206 0.908 0.413 1.82 0.625 2.75 0.388 3.36 0.179 4.49-1.62 7.25-0.0619-0.66-0.124-1.32-0.188-2-0.96-3.54-2.6-6.02-4.66-9.04-1.18-2-1.71-3.7-2.16-5.96h-2v-3h-2v-2h-3v-2c1.32 0.33 2.64 0.66 4 1 0.33-0.66 0.66-1.32 1-2-0.66-0.33-1.32-0.66-2-1v-4c-0.0619-0.969-0.124-1.94-0.188-2.94 0.0125-5.73 1.18-11.7 3.19-17.1 2.11-1.39 2.11-1.39 4-2v-5z" fill="#55A42E"/>
<path transform="translate(948,442)" d="m0 0h2c-0.33 1.32-0.66 2.64-1 4 0.66 0.33 1.32 0.66 2 1v14l-2 1c1.32 0.66 2.64 1.32 4 2v-2-3c0.99-0.99 1.98-1.98 3-3v10c-0.99 0.33-1.98 0.66-3 1-0.33 0.99-0.66 1.98-1 3-2.06 0.688-2.06 0.688-4 1v3h2c0.432 22 0.432 22-2 28-1.65 1.69-3.31 3.36-5 5-0.719 2.73-0.856 5.16-1 8-0.639 0.103-1.28 0.206-1.94 0.312-0.681 0.227-1.36 0.454-2.06 0.688-0.33 0.99-0.66 1.98-1 3-0.99 0.495-0.99 0.495-2 1-0.464 0.99-0.464 0.99-0.938 2-1.06 2-1.06 2-4.06 3-0.66 0.99-1.32 1.98-2 3-0.124-0.784-0.247-1.57-0.375-2.38-0.416-2.77-0.416-2.77-2.62-4.62-0.33-0.33-0.66-0.66-1-1-0.33 0.99-0.66 1.98-1 3h-2c0.471-6.06 1.54-11.5 3.51-17.2 0.251-0.751 0.501-1.5 0.76-2.27 0.53-1.58 1.06-3.16 1.6-4.73 0.805-2.36 1.59-4.72 2.38-7.09 2.88-8.59 6-17 9.43-25.4 1.6-3.93 3.1-7.88 4.57-11.9 1.54-4.14 3.09-8.28 4.75-12.4z" fill="#579F31"/>
<path transform="translate(768,513)" d="m0 0c1.99 3.36 2.36 6.14 2.6 10 0.0789 1.23 0.158 2.46 0.239 3.73 0.0761 1.35 0.151 2.71 0.226 4.06 0.0404 0.693 0.0808 1.39 0.122 2.1 1.43 24.5 2.43 49.2 1.08 73.7-0.308 5.7-0.379 11.4-0.387 17.1-0.00443 0.877-0.00886 1.75-0.0134 2.66 0.00185 0.809 0.00371 1.62 0.00562 2.45 0.00113 0.706 0.00226 1.41 0.00342 2.14 0.0632 1.98 0.0632 1.98 0.595 3.76 0.808 3.39 0.968 6.84 1.22 10.3 0.124 1.62 0.249 3.24 0.373 4.86 0.19 2.53 0.379 5.06 0.566 7.59 0.758 14.4 0.758 14.4 3.38 28.5 0.66 0.33 1.32 0.66 2 1 0.395 2.27 0.395 2.27 0.598 5.24 0.0793 1.07 0.159 2.13 0.24 3.23 0.111 1.68 0.111 1.68 0.225 3.4 0.154 2.21 0.312 4.41 0.473 6.62 0.0658 0.983 0.132 1.97 0.199 2.98 0.186 2.65 0.186 2.65 1.27 5.53 0.246 2.02 0.472 4.04 0.688 6.06 1.3 10.7 4.01 21.2 6.53 31.7 0.733 3.06 1.46 6.11 2.18 9.17 1.96 8.32 3.95 16.6 6.12 24.9 0.48 2.18 0.48 2.18 0.48 5.18h-2c-14-47.9-24.5-98-27.7-148-0.252-3.79-0.573-7.57-0.904-11.3-1.98-22.8-2.66-45.5-2.64-68.4 7.75e-4 -1.28 0.00155-2.56 0.00235-3.88 0.021-11.9 0.104-23.8 0.701-35.7 0.0382-0.772 0.0765-1.54 0.116-2.34 0.178-3.07 0.454-5.64 1.43-8.57z" fill="#579F31"/>
<path transform="translate(948,645)" d="m0 0h2c2.45 2.45 2.3 3.07 2.31 6.44-0.149 9.32-1.35 19.7-4.31 28.6-1.28 7.79-0.724 15.2 0 23h-2c0.474 0.639 0.949 1.28 1.44 1.94 2.03 3.98 2.28 7.65 2.56 12.1 3.47 0.495 3.47 0.495 7 1v2c-0.99 0.495-0.99 0.495-2 1-0.652 2.02-0.652 2.02-1 4-0.908-0.0412-1.82-0.0825-2.75-0.125-3.13-0.108-3.13-0.108-5.17 1.11-2.33 1.14-4 1.28-6.58 1.39-4.27 0.369-5.57 1.49-8.5 4.62-3.25 0.25-3.25 0.25-6 0v-6h3v-3h4v-4h2v-2h4v-4h-3c0.141-1.77 0.288-3.54 0.438-5.31 0.0812-0.986 0.162-1.97 0.246-2.99 0.316-2.7 0.316-2.7 1.32-5.7 0.0705-2.74 0.0936-5.45 0.0625-8.19-0.00451-0.75-0.00902-1.5-0.0137-2.27-0.0118-1.85-0.0297-3.69-0.0488-5.54-0.66-0.33-1.32-0.66-2-1 0.33-2.64 0.66-5.28 1-8 0.66 0.33 1.32 0.66 2 1v6h2c-0.0232-0.58-0.0464-1.16-0.0703-1.76-0.115-4.97 0.493-8.51 2.07-13.2 0.468-3.99 0.753-7.99 1-12 1.65 0.66 3.3 1.32 5 2-0.33-0.99-0.66-1.98-1-3 0.16-2.7 0.604-5.32 1-8z" fill="#56A62E"/>
<path transform="translate(553,513)" d="m0 0c-0.33 0.99-0.66 1.98-1 3-1.79 0.66-1.79 0.66-4.06 1.06-1.21 0.236-1.21 0.236-2.44 0.477-0.824 0.152-1.65 0.304-2.5 0.461-2.75 0.542-5.31 1.18-8 2-0.33 0.99-0.66 1.98-1 3-0.66 0.33-1.32 0.66-2 1v4c-0.641 0.121-1.28 0.242-1.94 0.367-5.11 0.989-10.1 2.15-15.1 3.63-7.66 2.17-7.66 2.17-10 1v2c-10.3 2.82-20.5 5.34-31 7-2-3-2-3-1.75-5.06 0.75-1.94 0.75-1.94 2.75-3.94v-1c6.42-2.33 12.9-3.98 19.5-5.47 4.52-1.02 8.93-2.25 13.4-3.61 6.44-1.92 12.9-3.7 19.4-5.48 1.69-0.467 3.39-0.938 5.08-1.41 2.47-0.693 4.94-1.37 7.41-2.05 0.752-0.214 1.5-0.429 2.28-0.65 3.99-1.07 6.97-1.59 11-0.334z" fill="#4E9F23"/>
<path transform="translate(1045,289)" d="m0 0h3v2c1.14-0.0928 1.14-0.0928 2.31-0.188 2.69 0.188 2.69 0.188 4.5 1.38 1.55 2.37 1.41 4.03 1.19 6.81 0.33-0.66 0.66-1.32 1-2h11c1.32 2.64 2.64 5.28 4 8l-2 1c0.495 0.99 0.495 0.99 1 2h-9c1.44 0.648 2.87 1.29 4.31 1.94 0.801 0.36 1.6 0.719 2.43 1.09 2.36 1.05 2.36 1.05 5.26 1.97 0.66 0.66 1.32 1.32 2 2 2.07 0.643 2.07 0.643 4 1v2c0.639 0.248 1.28 0.495 1.94 0.75 1.74 0.712 3.48 1.44 5.19 2.24 4.35 2.02 8.1 3.31 12.9 4.01 0.66 0.66 1.32 1.32 2 2 1.66 0.674 3.33 1.34 5 2 1.68 0.977 3.35 1.97 5 3 0.66 0.33 1.32 0.66 2 1l-3 3c-0.958-0.485-1.92-0.969-2.9-1.47-7.77-3.91-15.6-7.75-23.5-11.4-4.75-2.21-9.43-4.53-14.1-6.88-7.75-3.89-15.5-7.7-23.3-11.5-2.15-1.04-4.3-2.09-6.45-3.13-6.86-3.33-13.7-6.61-20.7-9.65v-1c0.928 0.0206 1.86 0.0412 2.81 0.0625 3.21 0.0952 3.21 0.0952 6.19-1.06 0.99 0.33 1.98 0.66 3 1v2c3.63 0.33 7.26 0.66 11 1v2h2v-4c-0.66-0.33-1.32-0.66-2-1 0.66-0.66 1.32-1.32 2-2z" fill="#56A42F"/>
<path transform="translate(838,169)" d="m0 0c7.73 2.46 15.4 5.07 22.6 8.88 3.92 2.02 8 3.54 12.1 5.06 25.7 9.48 25.7 9.48 32.2 16.1 0.825 0.309 1.65 0.619 2.5 0.938 2.89 1.23 3.91 2.39 5.5 5.06v2c0.66 0.33 1.32 0.66 2 1-3.82 1.27-4.81 0.482-8.44-1.12-1.08-0.471-2.16-0.941-3.27-1.43-1.09-0.478-2.17-0.956-3.29-1.45-1.87-0.775-3.75-1.55-5.62-2.31-11.9-4.99-23.8-10.2-35.2-16.2-3-1.54-5.79-2.93-9.13-3.53v-2c-0.928-0.268-1.86-0.536-2.81-0.812-3.04-1.13-4.17-1.78-6.19-4.19-0.557-0.495-1.11-0.99-1.69-1.5-1.31-1.5-1.31-1.5-1.31-4.5z" fill="#4E9F22"/>
<path transform="translate(478,533)" d="m0 0c-1.63 1.71-2.87 2.93-5 4 0.495 2.48 0.495 2.48 1 5-6.13 2.19-12.3 3.85-18.6 5.37-4.96 1.21-9.77 2.71-14.6 4.32-6.42 2.09-12.9 3.77-19.8 3.31-0.66-0.66-1.32-1.32-2-2 0.66-0.66 1.32-1.32 2-2-1.65-0.33-3.3-0.66-5-1v-2c13.4-4.2 26.9-7.85 40.5-11.3 1.28-0.324 2.56-0.648 3.87-0.982 1.14-0.286 2.28-0.573 3.45-0.868 3.24-0.832 3.24-0.832 6.45-2 3.06-0.962 4.72-0.763 7.76 0.132z" fill="#579F31"/>
<path transform="translate(776,186)" d="m0 0c6.38 2.12 6.38 2.12 9 5h-3v2c0.99 0.33 1.98 0.66 3 1-0.99 0.495-0.99 0.495-2 1 0.33 0.66 0.66 1.32 1 2 2.02 0.545 2.02 0.545 4.38 0.75 0.791 0.098 1.58 0.196 2.4 0.297 2.52 0.146 2.52 0.146 5.23-2.05l1 1c0.33-0.99 0.66-1.98 1-3 2.31 0.33 4.62 0.66 7 1-3.36 4.31-6.96 7.86-11.1 11.4-1.88 1.55-1.88 1.55-3.35 3.31-2.78 2.39-6.01 1.48-9.52 1.3v-2h3c-1.32-1.32-2.64-2.64-4-4-0.33 0.99-0.66 1.98-1 3 0.33 0.33 0.66 0.66 1 1v2h-4c-0.66-2.31-1.32-4.62-2-7-1.32 0.33-2.64 0.66-4 1v3c-3.96 0.495-3.96 0.495-8 1-0.719-1.67-0.719-1.67-1-4 1.41-2.52 1.41-2.52 3.5-5.25 0.732-0.96 1.46-1.92 2.22-2.91 2.98-3.72 6.06-7.33 9.28-10.8z" fill="#55A62D"/>
<path transform="translate(504,428)" d="m0 0h2c-0.0232 0.987-0.0464 1.97-0.0703 2.99-0.018 1.28-0.0361 2.56-0.0547 3.88-0.0232 1.28-0.0464 2.55-0.0703 3.87-0.161 3.34-0.161 3.34 2.2 5.26 0.33-0.66 0.66-1.32 1-2 2 2 2 2 2 6h2c-0.17 0.62-0.34 1.24-0.516 1.88-0.52 1.9-1.04 3.8-1.55 5.7-0.657 2.42-1.32 4.83-1.98 7.24-0.357 1.31-0.714 2.62-1.07 3.93-0.333 1.21-0.665 2.42-1.01 3.67-0.933 3.59-0.933 3.59-1.39 7.35-0.51 3.43-1.52 5.41-3.48 8.23-2.47-1.15-4.05-2.05-6-4-0.0644-2.64 0.00335-5.13 0.188-7.75 0.0512-0.79 0.102-1.58 0.155-2.39 1.07-14.9 2.88-29.6 7.66-43.9z" fill="#55A925"/>
<path transform="translate(732,252)" d="m0 0c1.24 3.58 0.749 6.34 0 10h5c0.814 2.31 1.21 3.5 0.247 5.81-0.409 0.609-0.818 1.22-1.24 1.84-0.454 0.688-0.908 1.38-1.38 2.09-0.746 1.09-0.746 1.09-1.51 2.2-0.499 0.747-0.999 1.49-1.51 2.26-1.03 1.53-2.06 3.06-3.1 4.58-1.41 2.07-2.8 4.14-4.18 6.23-4.42 6.58-4.42 6.58-6.33 8.99h-2c-0.33 0.99-0.66 1.98-1 3-2.48 0.495-2.48 0.495-5 1 0.459-6.58 2.25-11.4 5.18-17.3 0.623-1.28 0.623-1.28 1.26-2.58 0.875-1.79 1.75-3.57 2.64-5.35 1.36-2.74 2.7-5.48 4.04-8.23 0.854-1.74 1.71-3.48 2.56-5.21 0.402-0.823 0.804-1.65 1.22-2.49 0.377-0.755 0.754-1.51 1.14-2.29 0.33-0.666 0.66-1.33 1-2.02 0.955-1.55 0.955-1.55 2.96-2.55z" fill="#55A42E"/>
<path transform="translate(623,494)" d="m0 0c-0.33 0.33-0.66 0.66-1 1h4v2c1.3 0.124 2.6 0.248 3.94 0.375 2.21 0.211 2.21 0.211 4.06 0.625 0.495 0.99 0.495 0.99 1 2-2.48-0.495-2.48-0.495-5-1-0.33 1.32-0.66 2.64-1 4-8.04 2.11-16.1 4.09-24.2 5.56-11.1 1.13-11.1 1.13-20.8 5.44-1.64 0.0985-3.29 0.13-4.94 0.125-0.896 0.00258-1.79 0.00516-2.71 0.00781-2.35-0.133-2.35-0.133-4.35-1.13 0.935-2.33 1.49-3.71 3.71-4.98 6.67-2.05 13.4-3.1 20.3-4.02 1.44-0.207 2.88-0.415 4.31-0.625 0.887-0.124 1.77-0.248 2.69-0.375v-2c2.64-0.99 5.28-1.98 8-3-0.99-0.66-1.98-1.32-3-2 0.626-0.133 1.25-0.266 1.9-0.402 0.817-0.177 1.63-0.353 2.48-0.535 0.812-0.174 1.62-0.348 2.46-0.527 5.45-1.35 5.45-1.35 8.16-0.535z" fill="#4E9F22"/>
<path transform="translate(963,671)" d="m0 0c1.25 2.49 0.777 3.41 0 6 1.65-0.66 3.3-1.32 5-2 0.33 0.99 0.66 1.98 1 3 2.83 2.63 5.2 3.47 9 4-0.66 1.32-1.32 2.64-2 4-0.99-0.33-1.98-0.66-3-1v2h5v6h-3c-0.103 1.26-0.206 2.52-0.312 3.81-0.333 2.65-0.532 3.96-2.06 6.19-1.62 1-1.62 1-4.62 1-0.33-0.66-0.66-1.32-1-2-0.99 0.33-1.98 0.66-3 1-0.0825-0.742-0.165-1.49-0.25-2.25-0.531-2.87-0.531-2.87-2.75-4.69-2.53-2.61-2.53-4.54-3-8.06-0.66-0.33-1.32-0.66-2-1 2.69-13.1 2.69-13.1 7-16z" fill="#56A62E"/>
<path transform="translate(357,563)" d="m0 0c0.66 0.99 1.32 1.98 2 3-1.62 0.98-3.25 1.96-4.88 2.94-0.905 0.545-1.81 1.09-2.74 1.65-1.43 0.849-2.89 1.66-4.38 2.41v3c-1.98 0.33-3.96 0.66-6 1-1.01 6.68-1.13 13.2-1.1 19.9 0.00212 1.68 0.00212 1.68 0.00429 3.4 0.00557 3.56 0.0181 7.11 0.0309 10.7 0.00502 2.42 0.00958 4.84 0.0137 7.26 0.011 5.91 0.0277 11.8 0.0488 17.7-0.99-0.33-1.98-0.66-3-1-1.46-2.93-1.34-5.67-1.54-8.94-0.0433-0.704-0.0867-1.41-0.131-2.13-0.52-8.64-0.949-17.3-1.33-25.9-0.032-0.699-0.0639-1.4-0.0969-2.12-0.191-4.27-0.316-8.54-0.403-12.8-0.0426-1.07-0.0852-2.14-0.129-3.24-0.0249-2.74 0.0175-5.15 0.629-7.82 3.58-3.49 7.24-4.59 12.1-5.62 3.83-0.838 7.33-1.83 10.9-3.38z" fill="#579F31"/>
<path transform="translate(828 349)" d="m0 0c2 0.218 4 0.435 6.01 0.653 2.11 0.231 4.23 0.464 6.34 0.699 7.38 0.818 14.8 1.61 22.1 2.41 0.745 0.0803 1.49 0.161 2.26 0.243 17.4 1.88 34.9 3.53 52.3 5.13 1.56 0.144 1.56 0.144 3.16 0.291 1.91 0.176 3.83 0.35 5.74 0.523 5.12 0.468 10.2 1.03 15.3 1.7v2c-2.35 0.0273-4.71 0.047-7.06 0.0625-1.97 0.0174-1.97 0.0174-3.97 0.0352-3.96-0.0977-3.96-0.0977-7.24-0.575-3.76-0.528-7.45-0.792-11.2-0.988-1.43-0.0786-2.86-0.157-4.29-0.236-2.22-0.119-4.43-0.236-6.65-0.348-7.78-0.4-15.3-0.993-23-2.55-2.72-0.421-5.23-0.44-7.99-0.371-9.08 0.163-18-1.29-27-2.46-1.83-0.233-3.66-0.465-5.49-0.697-1.75-0.224-3.5-0.449-5.26-0.674-0.812-0.104-1.62-0.208-2.46-0.316-3.82-0.502-7.58-1.11-11.4-1.88-3.87-0.26-7.73-0.442-11.6-0.621-3.4-0.379-3.4-0.379-6.4-2.38 7.4-3.7 19.8-0.541 27.7 0.355z" fill="#579F31"/>
<path transform="translate(357,571)" d="m0 0h9c0.625 2.38 0.625 2.38 1 5-0.66 0.66-1.32 1.32-2 2-0.165 0.66-0.33 1.32-0.5 2-0.5 2-0.5 2-2.5 4-0.0585 2.47-0.0585 2.47 1 5 1.64 1.36 3.31 2.7 5 4v3c0.66 0.33 1.32 0.66 2 1-0.66 3.3-1.32 6.6-2 10-1.49 0.495-1.49 0.495-3 1-0.66-3.3-1.32-6.6-2-10-4.29-0.99-8.58-1.98-13-3-1.23-7.47-1.41-11.7 2.58-18.2 1.42-1.78 1.42-1.78 4.42-3.78v-2z" fill="#56A62E"/>
<path transform="translate(902,196)" d="m0 0c5.74 1.84 11.4 3.85 17.1 5.94 0.99 0.361 0.99 0.361 2 0.729 3.28 1.22 6.42 2.54 9.53 4.16 5.47 2.8 11.2 4.96 16.9 7.2 11.3 4.43 22.5 8.97 33.5 14v2c-8.42-2.75-8.42-2.75-11.6-4.12-3.08-1.14-6.12-1.49-9.38-1.88v-2h-7l-1-2c-5.25-2.06-9.84-2.13-15.4-1.88-2.71-0.133-4.24-0.742-6.55-2.12v-2c-0.66-0.33-1.32-0.66-2-1-0.33 0.33-0.66 0.66-1 1h-2c0.33-1.32 0.66-2.64 1-4-0.33 0.33-0.66 0.66-1 1-7.09 0.465-7.09 0.465-10.3-1.19-2.4-2.58-4.69-5.18-4.69-8.81-1.13-0.268-2.27-0.536-3.44-0.812-1.18-0.392-2.35-0.784-3.56-1.19-0.33-0.99-0.66-1.98-1-3z" fill="#579F31"/>
<path transform="translate(568 357)" d="m0 0c1.07 0.0245 2.13 0.049 3.23 0.0742 2.58 0.238 2.58 0.238 3.58 1.24 2.64 0.288 5.29 0.448 7.95 0.621 3.05 0.379 3.05 0.379 6.14 1.33 5.33 1.61 10.9 1.89 16.4 2.43 8.86 0.919 17.6 2.03 26.4 3.62 12.8 2.31 25.5 4.56 38.5 5.49 1.07 0.0772 2.15 0.154 3.25 0.234 2.07 0.14 4.14 0.263 6.21 0.368 6.36 0.413 10.7 1.68 16.2 4.91v1c-8.21 0.373-15.9-0.786-24-2.19-2.75-0.463-5.49-0.919-8.24-1.38-0.708-0.118-1.42-0.236-2.15-0.358-9.66-1.6-19.4-2.98-29-4.38-6.81-0.985-13.6-2.02-20.4-3.17-6.05-1-12.1-1.92-18.2-2.82-1.51-0.224-3.01-0.453-4.52-0.687-10.6-1.64-20.8-2.34-31.5-2.03 3.46-3.77 5.01-4.5 10.2-4.31z" fill="#56A32F"/>
<path transform="translate(538,367)" d="m0 0c0.543 0.41 1.09 0.82 1.64 1.24 0.715 0.539 1.43 1.08 2.17 1.63 0.708 0.534 1.42 1.07 2.14 1.62 1.65 1.22 3.34 2.37 5.04 3.51-2.97 5.28-5.94 10.6-9 16h-8c0.33-2.64 0.66-5.28 1-8-0.99-0.33-1.98-0.66-3-1-0.73-1.85-0.73-1.85-1.19-4.06-0.159-0.733-0.317-1.47-0.48-2.22-0.11-0.566-0.219-1.13-0.332-1.71 0.99-0.66 1.98-1.32 3-2 0.66-0.99 1.32-1.98 2-3 0.99 1.49 0.99 1.49 2 3h4c-0.33-1.65-0.66-3.3-1-5z" fill="#55A62D"/>
<path transform="translate(553,513)" d="m0 0c-0.33 0.99-0.66 1.98-1 3-1.79 0.66-1.79 0.66-4.06 1.06-1.21 0.236-1.21 0.236-2.44 0.477-0.824 0.152-1.65 0.304-2.5 0.461-2.75 0.542-5.31 1.18-8 2-0.33 0.99-0.66 1.98-1 3-0.66 0.33-1.32 0.66-2 1v4c-2.31 0.33-4.62 0.66-7 1 0.33-0.66 0.66-1.32 1-2-3.01-0.934-3.87-1.04-7 0h-6l-2 1c-2.21 0.0709-4.42 0.0842-6.62 0.0625-1.19-0.00902-2.38-0.018-3.6-0.0273-0.915-0.0116-1.83-0.0232-2.77-0.0352v-2c9.78-3.09 19.6-5.92 29.5-8.63 1.67-0.46 3.34-0.924 5.01-1.39 2.45-0.687 4.9-1.36 7.35-2.03 0.743-0.211 1.49-0.423 2.25-0.64 3.97-1.06 6.92-1.54 10.9-0.309z" fill="#579F31"/>
<path transform="translate(550,512)" d="m0 0h17v3h4v2c-6.13 1.75-6.13 1.75-8.03 2.29-3.25 0.927-6.49 1.86-9.74 2.79-17.1 4.91-17.1 4.91-22.2 4.91 0.33-1.32 0.66-2.64 1-4h2c0.33-1.32 0.66-2.64 1-4 5.28-1.32 10.6-2.64 16-4-0.33-0.99-0.66-1.98-1-3z" fill="#4E9F22"/>
<path transform="translate(705 338)" d="m0 0c0.799 0.0184 1.6 0.0368 2.42 0.0558 3.62 0.169 7.22 0.455 10.8 0.812 0.793 0.0753 1.59 0.151 2.4 0.228 2.6 0.249 5.21 0.504 7.81 0.76 1.83 0.177 3.66 0.354 5.49 0.53 21.6 2.11 43.3 4.44 64.9 6.78v2c-2.42 0.0271-4.83 0.0469-7.25 0.0625-1.02 0.0126-1.02 0.0126-2.07 0.0254-3.43 0.0167-6.38-0.262-9.68-1.09-1.51-0.141-3.03-0.245-4.55-0.316-0.844-0.0419-1.69-0.0838-2.56-0.127-0.873-0.0393-1.75-0.0786-2.64-0.119-0.888-0.0432-1.78-0.0864-2.69-0.131-2.19-0.106-4.37-0.208-6.56-0.307v-2c-1.05 0.0116-2.1 0.0232-3.18 0.0352-1.38 0.00938-2.76 0.0185-4.14 0.0273-0.69 0.00838-1.38 0.0168-2.09 0.0254-3.14 0.0152-5.59-0.086-8.6-1.09-2.69-0.184-5.37-0.326-8.06-0.438-8.65-0.415-17.2-1.27-25.8-2.31-3.71-0.44-7.43-0.845-11.1-1.25 3.09-2.06 3.68-2.25 7.16-2.17z" fill="#57A031"/>
<path transform="translate(741,515)" d="m0 0c-2.98 1.64-5.74 2.51-9.07 3.23-1.02 0.223-2.05 0.446-3.11 0.676-1.68 0.358-1.68 0.358-3.39 0.722-2.45 0.531-4.89 1.06-7.34 1.6-0.647 0.141-1.29 0.281-1.96 0.426-4.95 1.08-9.89 2.2-14.8 3.35-1.1 0.255-1.1 0.255-2.22 0.514-0.737 0.17-1.47 0.341-2.23 0.517-12.1 2.79-24.1 5.52-36.2 7.97-1.02 0.208-2.03 0.415-3.08 0.629-0.931 0.184-1.86 0.369-2.82 0.558-0.798 0.159-1.6 0.317-2.42 0.48-2.46 0.355-4.82 0.389-7.31 0.332v-2c0.878-0.147 0.878-0.147 1.77-0.297 18.3-3.18 36.4-7.65 54.4-12.2 2.6-0.632 5.23-1.04 7.88-1.46v-2c1.32 0.33 2.64 0.66 4 1-0.495-1.49-0.495-1.49-1-3 1.83 0.34 1.83 0.34 3.69 0.688 5.44 0.644 10-0.693 15.3-2.05 3.78-0.79 6.34-0.583 10 0.363z" fill="#56A32F"/>
<path transform="translate(612,497)" d="m0 0c-1 2-1 2-3.38 3.12-2.62 0.875-2.62 0.875-5.62 0.875v2c-22.8 5-22.8 5-28 5-0.33 0.66-0.66 1.32-1 2-0.99 1.49-0.99 1.49-2 3 0.66 0.33 1.32 0.66 2 1-4.18 2.79-6.15 1.8-11 1 1.32-0.33 2.64-0.66 4-1v-2c-0.99 0.33-1.98 0.66-3 1-1.73 0.068-3.46 0.085-5.19 0.0625-1.35-0.0135-1.35-0.0135-2.73-0.0273-0.687-0.0116-1.37-0.0232-2.08-0.0352v-2c4.94-1.79 9.72-3.19 14.9-4.19 8.69-1.75 17.1-4.44 25.5-7.12 6.09-1.88 11.2-3.17 17.6-2.69z" fill="#579F30"/>
<path transform="translate(440,1026)" d="m0 0c3.32 0.553 6.21 1.07 9 3 2 4.1 2 4.1 2 6h2c-0.33-1.65-0.66-3.3-1-5h2c0.33 1.65 0.66 3.3 1 5h2c0.506 6.07-0.958 9.77-4 15-0.33-0.99-0.66-1.98-1-3-0.743 0.103-1.49 0.206-2.25 0.312-2.75-0.312-2.75-0.312-4.94-2.31-2.68-4.44-3.81-8.77-3.81-14-0.66-0.33-1.32-0.66-2-1 0.33-1.32 0.66-2.64 1-4z" fill="#55A62D"/>
<path transform="translate(721,271)" d="m0 0c2.25 2.05 3 3.01 4 6h2c0.585 5.5-1.22 8.59-4.38 12.9-0.413 0.593-0.825 1.19-1.25 1.8-1.06 1.49-2.21 2.91-3.38 4.33h-2c-0.33 0.99-0.66 1.98-1 3-1.65 0.33-3.3 0.66-5 1 0.4-7.21 2.85-12.6 6.06-19 0.472-0.966 0.945-1.93 1.43-2.93 1.16-2.36 2.33-4.72 3.51-7.07z" fill="#56A62E"/>
<path transform="translate(718,473)" d="m0 0c-0.66 2.31-1.32 4.62-2 7-2.29 0.677-4.04 0.998-6.44 0.875-3.24 0.158-4.82 1.45-7.56 3.12-1.99 0.366-3.99 0.701-6 1-0.681 0.392-1.36 0.784-2.06 1.19-1.94 0.812-1.94 0.812-4.69-0.0625l-2.25-1.12c0-3 0-3 1.07-4.59 2.77-2.03 5.45-2.39 8.8-3.04 1.21-0.24 2.43-0.48 3.68-0.727 2.1-0.396 4.21-0.771 6.33-1.11 0.699-0.178 1.4-0.356 2.12-0.539 0.33-0.66 0.66-1.32 1-2 3-1.14 4.98-0.971 8 0z" fill="#4E9F23"/>
<path transform="translate(919,525)" d="m0 0c0.99 0.33 1.98 0.66 3 1-0.33 0.722-0.66 1.44-1 2.19-1.01 2.83-1.17 4.84-1 7.81h-2c0.33 0.99 0.66 1.98 1 3 0.0395 2.33 0.044 4.67 0 7-0.33-0.66-0.66-1.32-1-2h-2c0.0232 0.785 0.0464 1.57 0.0703 2.38 0.117 6.83-0.107 12.5-3.09 18.8-3.35 7.34-3.39 13.9-2.98 21.8-0.66-1.32-1.32-2.64-2-4-0.66 2.64-1.32 5.28-2 8h-1c-0.329-7.34 0.566-13.8 2.3-20.9 0.237-1.01 0.474-2.02 0.718-3.05 0.5-2.12 1.01-4.23 1.52-6.35 0.776-3.21 1.53-6.43 2.29-9.65 0.491-2.07 0.982-4.13 1.47-6.2 0.225-0.95 0.45-1.9 0.682-2.88 1.39-5.75 3.04-11.3 5.02-16.9z" fill="#57A031"/>
<path transform="translate(838,903)" d="m0 0c3.87 1.29 4.06 2.49 5.86 6.07 0.805 1.58 0.805 1.58 1.63 3.19 0.563 1.13 1.13 2.26 1.71 3.42 1.16 2.29 2.33 4.58 3.5 6.87 0.566 1.11 1.13 2.22 1.71 3.36 2.56 4.91 5.35 9.67 8.21 14.4 1.36 2.61 1.99 4.77 2.39 7.67h2c1.52 2.14 1.52 2.14 3.38 5.25 0.338 0.563 0.676 1.13 1.02 1.71 0.767 1.28 1.53 2.56 2.29 3.84 1.46 2.45 2.93 4.9 4.4 7.34 2.56 4.26 5.12 8.52 7.67 12.8 1.41 2.36 2.83 4.72 4.24 7.08h-2c-1.68-2.09-3.22-4.18-4.75-6.38-0.418-0.584-0.835-1.17-1.27-1.77-3.05-4.33-5.8-8.8-8.5-13.4-1.37-2.3-2.76-4.59-4.17-6.87-6.07-9.9-11.8-20-17.3-30.2-0.317-0.588-0.633-1.18-0.96-1.78-3.99-7.43-7.72-14.9-11.1-22.7z" fill="#579F31"/>
<path transform="translate(1240,338)" d="m0 0c3.74 0.415 6.74 1.12 10 3v2h2v2c-0.99 0.33-1.98 0.66-3 1 0.351 0.763 0.701 1.53 1.06 2.31 0.938 2.69 0.938 2.69-0.0625 5.69-1.98-0.66-3.96-1.32-6-2v-2c-3.31 1.71-3.31 1.71-3.69 5.12-0.155 1.42-0.155 1.42-0.312 2.88-2.31 0.33-4.62 0.66-7 1 0.0206-0.784 0.0412-1.57 0.0625-2.38 0.124-2.61 0.124-2.61-1.06-4.62h2v-2h2c0.33 0.33 0.66 0.66 1 1h2c-0.0206-1.11-0.0412-2.23-0.0625-3.38 0.0625-3.62 0.0625-3.62 1.06-5.62h2v2h2c-0.454-0.454-0.908-0.908-1.38-1.38-1.21-1.21-2.42-2.42-3.62-3.62 0.33-0.33 0.66-0.66 1-1z" fill="#55A925"/>
<path transform="translate(519,390)" d="m0 0c-0.518 2.07-1.04 4.13-1.62 6.19-0.124 0.598-0.247 1.2-0.375 1.81 0.33 0.33 0.66 0.66 1 1 0.33-0.66 0.66-1.32 1-2h2c1.17 3.98 2.26 7.92 3 12h-2c-0.33 0.99-0.66 1.98-1 3h-9c-1.38-7.96-0.73-13.7 3-21 2-1 2-1 4-1z" fill="#55A72D"/>
<path transform="translate(646 332)" d="m0 0c1.91 0.137 1.91 0.137 3.86 0.277 9.4 0.707 9.4 0.707 12.8 1.85 1.81 0.204 3.63 0.365 5.45 0.5 1.08 0.0825 2.16 0.165 3.27 0.25 1.13 0.0825 2.25 0.165 3.41 0.25 7.31 0.547 14.6 1.14 21.9 2v2c-11.6 0.526-22.9-0.771-34.5-2.13-8.23-0.967-16.5-1.77-24.7-2.55-1.39-0.133-2.77-0.265-4.16-0.398-3.22-0.307-6.43-0.612-9.65-0.915v-1c7.52-1.34 14.7-0.725 22.3-0.125z" fill="#57A031"/>
<path transform="translate(597,329)" d="m0 0c9.04-0.206 17.9-0.0888 26.9 0.875 1.16 0.118 1.16 0.118 2.35 0.238 5.47 0.638 5.47 0.638 7.72 2.89 2.32 0.447 2.32 0.447 5.02 0.598 1.51 0.119 1.51 0.119 3.04 0.24 1.58 0.111 1.58 0.111 3.19 0.225 12.7 0.955 12.7 0.955 17.8 1.94-0.66 0.66-1.32 1.32-2 2-2.92-0.0252-5.72-0.172-8.62-0.426-0.856-0.067-1.71-0.134-2.59-0.203-1.81-0.144-3.62-0.293-5.43-0.447-2.77-0.235-5.55-0.455-8.32-0.672-1.76-0.142-3.52-0.284-5.28-0.428-0.831-0.0667-1.66-0.133-2.52-0.202-3.25-0.279-6.13-0.588-9.23-1.62-2.25-0.178-4.5-0.319-6.75-0.438-5.05-0.334-9.53-0.698-14.2-2.56-0.33-0.66-0.66-1.32-1-2z" fill="#56A42F"/>
<path transform="translate(928,1038)" d="m0 0c2.38-0.188 2.38-0.188 5 0 0.66 0.99 1.32 1.98 2 3 3.05 1.21 3.05 1.21 6 2 0.33-1.65 0.66-3.3 1-5h3c0.33 5.94 0.66 11.9 1 18-6.74-1.69-11.6-7.59-15.5-13.2-0.887-1.56-1.69-3.16-2.46-4.78z" fill="#589F32"/>
<path transform="translate(909,238)" d="m0 0c6.02 0.516 10.8 3.11 16.1 5.75 6.7 3.26 13.4 6.37 20.3 9.16 4.31 1.81 8.45 3.94 12.6 6.09v2c0.784 0.144 1.57 0.289 2.38 0.438 2.62 0.562 2.62 0.562 4.62 1.56v2c-5.96-1.75-11.3-4.05-16.9-6.88-6.87-3.51-13.8-6.81-20.8-10.1-6.15-2.93-12.3-5.93-18.3-9v-1z" fill="#55A32C"/>
<path transform="translate(1119,417)" d="m0 0c0.66 0.33 1.32 0.66 2 1-0.784 0.887-1.57 1.77-2.38 2.69-2.23 2.65-3.35 5.09-4.62 8.31-1.33 1.33-2.67 2.67-4 4-0.672 1.94-0.672 1.94-1 4-0.647 1.67-1.31 3.34-2 5-1.65-0.33-3.3-0.66-5-1v-3h2c0.33-1.65 0.66-3.3 1-5-0.66 0.33-1.32 0.66-2 1 1.35-3.04 2.8-5 5.26-7.23 0.625-0.574 1.25-1.15 1.89-1.74 0.651-0.587 1.3-1.17 1.97-1.78 0.659-0.602 1.32-1.2 2-1.82 1.62-1.48 3.25-2.96 4.88-4.43z" fill="#56A32F"/>
<path transform="translate(700,524)" d="m0 0c-2.71 1.81-3.99 2.38-7.04 3.04-0.808 0.177-1.62 0.354-2.45 0.536-1.31 0.275-1.31 0.275-2.64 0.556-0.904 0.195-1.81 0.389-2.74 0.59-1.92 0.411-3.83 0.818-5.75 1.22-2.91 0.614-5.81 1.24-8.72 1.87-1.87 0.399-3.74 0.796-5.6 1.19-0.858 0.185-1.72 0.371-2.6 0.562-5.8 1.21-11.6 1.96-17.5 2.43v-2c0.878-0.147 0.878-0.147 1.77-0.297 5.99-1.04 11.9-2.26 17.9-3.58 0.764-0.17 1.53-0.339 2.32-0.514 3.91-0.875 7.8-1.79 11.7-2.76 7.21-1.8 13.9-3.4 21.4-2.85z" fill="#57A230"/>
<path transform="translate(504,428)" d="m0 0h2c-0.0232 0.987-0.0464 1.97-0.0703 2.99-0.018 1.28-0.0361 2.56-0.0547 3.88-0.0232 1.28-0.0464 2.55-0.0703 3.87-0.161 3.34-0.161 3.34 2.2 5.26 0.33-0.66 0.66-1.32 1-2 2 2 2 2 2 6h2c-0.66 2.31-1.32 4.62-2 7-2.31-0.99-4.62-1.98-7-3v-12h-2c0.141-1.63 0.288-3.25 0.438-4.88 0.0812-0.905 0.162-1.81 0.246-2.74 0.316-2.38 0.316-2.38 1.32-4.38z" fill="#55A52D"/>
<path transform="translate(932,735)" d="m0 0h6v6h-3v2h3v6h-6v-4h-4v-7h4v-3z" fill="#56A72E"/>
<path transform="translate(958,260)" d="m0 0c5.38-0.189 9.94-0.126 15 2 0.309 0.825 0.619 1.65 0.938 2.5 0.351 0.825 0.701 1.65 1.06 2.5 2.03 0.782 3.98 1.18 6.12 1.54 1.88 0.457 1.88 0.457 3.88 2.46v3c-6.94-2.16-13.4-4.89-20-8v-3c-2.31-0.66-4.62-1.32-7-2v-1z" fill="#56A52E"/>
<path transform="translate(894,997)" d="m0 0c3.68 1.51 5.72 3.65 8.31 6.62 0.784 0.893 1.57 1.79 2.38 2.71 0.763 0.88 1.53 1.76 2.31 2.67 0.66 0.746 1.32 1.49 2 2.26 3.1 3.51 6.13 7.04 9 10.7 0.577 0.722 1.15 1.44 1.75 2.19 1.25 1.81 1.25 1.81 1.25 3.81-4.29-1.58-6.73-4.84-9.56-8.25-0.517-0.613-1.03-1.23-1.57-1.86-3.78-4.51-7.47-9.09-11.1-13.7-0.717-0.906-0.717-0.906-1.45-1.83-3.3-4.23-3.3-4.23-3.3-5.36z" fill="#579F31"/>
<path transform="translate(824,661)" d="m0 0 2 1c0.502 2.73 0.857 5.37 1.12 8.12 0.0856 0.831 0.171 1.66 0.26 2.52 0.735 7.96 0.757 15.9 0.63 23.9-0.0137 0.932-0.0274 1.86-0.0415 2.82-0.018 0.827-0.0359 1.65-0.0544 2.51-0.0116 2.34-0.0116 2.34 1.08 5.15-0.99 0.495-0.99 0.495-2 1-2.68-5.99-2.19-12-2.06-18.4 0.111-7 0.0704-13.7-0.938-20.6-0.103-2.68-0.0479-5.32 0-8z" fill="#56A72E"/>
<path transform="translate(519,390)" d="m0 0c-0.518 2.07-1.04 4.13-1.62 6.19-0.124 0.598-0.247 1.2-0.375 1.81 0.33 0.33 0.66 0.66 1 1 0.33-0.66 0.66-1.32 1-2h2c1.12 5.62 1.12 5.62 0 9-1.65-0.33-3.3-0.66-5-1v-3h-3c-0.33 0.99-0.66 1.98-1 3-0.386-5.15 0.629-9.44 3-14 2-1 2-1 4-1z" fill="#54A825"/>
<path transform="translate(995 367)" d="m0 0c1.12 0.102 1.12 0.102 2.26 0.206 2.35 0.217 4.71 0.445 7.06 0.673 1.61 0.15 3.21 0.299 4.82 0.447 3.92 0.363 7.83 0.736 11.7 1.12v2c-13.8 0.687-27.4-1.34-41-3v-1c5.18-0.925 9.88-0.966 15.1-0.441z" fill="#57A130"/>
<path transform="translate(936,217)" d="m0 0c12.7-0.554 12.7-0.554 18 3v1c2.97 0.495 2.97 0.495 6 1v1c-6.45 2.31-10.4 2.02-16.6-0.859-0.779-0.376-1.56-0.753-2.36-1.14-1.66-0.678-3.33-1.35-5-2v-2z" fill="#4E9F22"/>
<path transform="translate(1250,341)" d="m0 0c1.46 0.567 2.92 1.15 4.38 1.75 0.812 0.325 1.62 0.65 2.46 0.984 2.5 1.46 3.15 2.6 4.16 5.27-1.98 1.98-3.96 3.96-6 6-0.99-0.33-1.98-0.66-3-1 0.33-1.98 0.66-3.96 1-6h-2c0.33-1.65 0.66-3.3 1-5h-2v-2z" fill="#55A42D"/>
<path transform="translate(803,806)" d="m0 0c2.66 2.66 3.27 5.61 4.31 9.12 0.437 1.44 0.875 2.89 1.31 4.33 0.224 0.746 0.449 1.49 0.68 2.26 0.694 2.28 1.41 4.56 2.13 6.83 0.23 0.726 0.461 1.45 0.698 2.2 0.445 1.4 0.892 2.8 1.34 4.2 1.52 4.83 1.52 4.83 1.52 7.05h-2c-1.6-4.64-3.18-9.29-4.75-13.9-0.537-1.58-1.08-3.16-1.62-4.74-0.78-2.27-1.55-4.54-2.32-6.81-0.246-0.706-0.492-1.41-0.745-2.14-1.68-5.03-1.68-5.03-0.564-8.37z" fill="#57A131"/>
<path transform="translate(828,559)" d="m0 0h1c0.543 11.7 1.08 23.4 0.969 35.1 0.0437 4.02 0.483 7.9 1.03 11.9-4.23-4.23-4.05-11.3-4.06-17.1 0.0617-4.54 0.247-9.07 0.438-13.6 0.0584-1.59 0.116-3.18 0.172-4.76 0.139-3.85 0.292-7.7 0.453-11.5z" fill="#57A130"/>
<path transform="translate(579,328)" d="m0 0c0.924 0.481 0.924 0.481 1.87 0.973 2.38 1.14 4.26 1.42 6.88 1.65 0.799 0.0748 1.6 0.15 2.42 0.227 0.603 0.049 1.21 0.098 1.83 0.148-3.17 1.91-5.11 2.16-8.75 1.62-0.799-0.111-1.6-0.222-2.42-0.336-0.603-0.0954-1.21-0.191-1.83-0.289v2h6v3h-6v-2h-4v-3h-2c-0.33-0.99-0.66-1.98-1-3 2.54-1.27 4.18-1.2 7-1z" fill="#55A925"/>
<path transform="translate(864,181)" d="m0 0c4.1-0.261 6.82 0.533 10.6 2.19 3.27 1.43 6.53 2.85 9.85 4.15 1.08 0.424 2.16 0.848 3.27 1.29 0.994 0.384 1.99 0.768 3.01 1.16 2.3 1.21 2.3 1.21 3.3 4.21-2.11-0.424-4.21-0.865-6.31-1.31-1.17-0.244-2.34-0.487-3.55-0.738-3.18-0.961-3.99-1.61-6.14-3.95-2.23-0.922-2.23-0.922-4.62-1.56-2.41-0.691-2.41-0.691-4.38-1.44-0.33-0.66-0.66-1.32-1-2-2.02-1.13-2.02-1.13-4-2z" fill="#579F30"/>
<path transform="translate(541,330)" d="m0 0c0.99 0.33 1.98 0.66 3 1-0.65 1-0.65 1-1.31 2.02-4.17 6.91-5.53 11.9-4.69 20-0.99 0.33-1.98 0.66-3 1-1.87-3.84-2.2-6.32-0.938-10.3 1.82-4.83 4.29-9.27 6.94-13.7z" fill="#55A62D"/>
<path transform="translate(997,248)" d="m0 0c8.7 0 13.4 3.58 20 9-3.82 1.27-5.27 0.343-9-1-1.66-0.361-3.33-0.705-5-1v-2c-0.619-0.268-1.24-0.536-1.88-0.812-2.12-1.19-2.12-1.19-4.12-4.19z" fill="#55A829"/>
<path transform="translate(1028,371)" d="m0 0c2.34 0.256 4.68 0.593 7 1 1.49 2.99 1.12 5.71 1 9-0.33 0.66-0.66 1.32-1 2-2.88-1.29-4.87-2.66-7-5h3c-0.99-0.33-1.98-0.66-3-1 0.33-0.99 0.66-1.98 1-3-0.33-0.99-0.66-1.98-1-3z" fill="#56A32F"/>
<path transform="translate(966,809)" d="m0 0c0.66 0.33 1.32 0.66 2 1-0.66 5.28-1.32 10.6-2 16-0.99-0.33-1.98-0.66-3-1 0.33-1.32 0.66-2.64 1-4h-2v-11c0.99 1.49 0.99 1.49 2 3v-3c0.66-0.33 1.32-0.66 2-1z" fill="#56A72E"/>
<path transform="translate(959,869)" d="m0 0c2 2 2 2 2.05 4.21-0.989 8.68-0.989 8.68-3.05 12.8-2-1-2-1-4-3 0.455-5.45 0.455-5.45 3-8 0.714-1.98 1.39-3.98 2-6z" fill="#56A62E"/>
<path transform="translate(534,1174)" d="m0 0h5v3c0.66-0.33 1.32-0.66 2-1v-2h2c0.66 2.97 1.32 5.94 2 9-5.2-1.36-8.1-3.47-12-7 0.33-0.66 0.66-1.32 1-2z" fill="#579F31"/>
<path transform="translate(971,719)" d="m0 0h8v6c-2.71 1.35-5.01 1.07-8 1v-7z" fill="#56A72E"/>
<path transform="translate(962,594)" d="m0 0c0.66 0.33 1.32 0.66 2 1-1.33 6-2.67 12-4 18h-3c-0.619-7.12 1.85-12.7 5-19z" fill="#56A62E"/>
<path transform="translate(636,494)" d="m0 0c0.825 0.186 1.65 0.371 2.5 0.562 4.12 0.515 7.41 0.0724 11.5-0.562v3c-8.65 2.6-8.65 2.6-13 3-0.66-0.66-1.32-1.32-2-2 0.375-2.12 0.375-2.12 1-4z" fill="#4E9F22"/>
<path transform="translate(1119,417)" d="m0 0c0.66 0.33 1.32 0.66 2 1-0.784 0.887-1.57 1.77-2.38 2.69-2.23 2.65-3.35 5.09-4.62 8.31-2.12 2.31-2.12 2.31-4 4-0.66-0.33-1.32-0.66-2-1 0.66-0.99 1.32-1.98 2-3-0.99-0.33-1.98-0.66-3-1 3.96-3.63 7.92-7.26 12-11z" fill="#529F29"/>
<path transform="translate(454 1054)" d="m0 0c1.45 0.0309 1.45 0.0309 2.94 0.0625v2c0.66 0.33 1.32 0.66 2 1v4c-1.32 0.33-2.64 0.66-4 1v-2c-1.32-0.33-2.64-0.66-4-1-0.562-1.94-0.562-1.94-1-4 1-1 1-1 4.06-1.06z" fill="#55A62D"/>
<path transform="translate(962,805)" d="m0 0c0 2.67-0.354 4.45-1 7-0.212 1.58-0.399 3.16-0.562 4.75-0.126 1.2-0.126 1.2-0.254 2.42-0.0606 0.603-0.121 1.21-0.184 1.83h-3c-0.767-8.62-0.767-8.62 1.11-12 1.39-1.62 1.39-1.62 3.89-4z" fill="#56A72E"/>
<path transform="translate(496,477)" d="m0 0c3 1 3 1 4 3h3c0.33 0.99 0.66 1.98 1 3-0.99 1.49-0.99 1.49-2 3-2.47-1.15-4.05-2.05-6-4-0.125-2.62-0.125-2.62 0-5z" fill="#56A62E"/>
<path transform="translate(613,364)" d="m0 0c5.23-0.163 9.86 0.394 14.9 1.5 0.684 0.143 1.37 0.286 2.07 0.434 1.66 0.349 3.33 0.707 4.99 1.07v1c-2.27 0.027-4.54 0.0464-6.81 0.0625-1.9 0.0174-1.9 0.0174-3.83 0.0352-3.36-0.0977-3.36-0.0977-6.36-1.1v-2h-5v-1z" fill="#56A52F"/>
<path transform="translate(903,599)" d="m0 0c0.976 2.93 1.08 4.96 1 8h-2c-0.33 3.3-0.66 6.6-1 10-0.99-0.66-1.98-1.32-3-2 0.451-2.11 0.911-4.21 1.38-6.31 0.255-1.17 0.51-2.34 0.773-3.55 0.852-3.14 0.852-3.14 2.85-6.14z" fill="#57A031"/>
<path transform="translate(971 364)" d="m0 0c1.04 0.0783 1.04 0.0783 2.1 0.158 1.7 0.129 3.39 0.266 5.09 0.404v2c-2.4 0.0271-4.79 0.0469-7.19 0.0625-0.674 0.00838-1.35 0.0168-2.04 0.0254-3.73 0.0182-7.15-0.195-10.8-1.09v-1c4.34-1.14 8.39-0.931 12.8-0.562z" fill="#57A031"/>
<path transform="translate(341,658)" d="m0 0v14h-2c-1.32-2.64-1.1-4.68-1.06-7.62 0.00902-1 0.018-2.01 0.0273-3.04 0.0116-0.771 0.0232-1.54 0.0352-2.34 2-1 2-1 3-1z" fill="#579F31"/>
<path transform="translate(372,691)" d="m0 0h3c0.0606 0.748 0.121 1.5 0.184 2.27 0.0838 0.985 0.168 1.97 0.254 2.98 0.0812 0.975 0.162 1.95 0.246 2.95 0.267 2.36 0.67 4.52 1.32 6.8-0.99 0.495-0.99 0.495-2 1-1.7-5.33-2.52-10.4-3-16z" fill="#53A22B"/>
<path transform="translate(890,668)" d="m0 0c0.99 0.33 1.98 0.66 3 1-0.33 4.95-0.66 9.9-1 15-0.33-0.99-0.66-1.98-1-3h-2c0.33-4.29 0.66-8.58 1-13z" fill="#57A031"/>
<path transform="translate(1134,344)" d="m0 0c2.69-0.312 2.69-0.312 6 0 2.88 2.5 2.88 2.5 5 5-3.64 1.21-4.33 0.667-7.69-0.938-1.21-0.57-1.21-0.57-2.45-1.15-0.615-0.3-1.23-0.601-1.86-0.91 0.33-0.66 0.66-1.32 1-2z" fill="#56A42F"/>
<path transform="translate(1067,514)" d="m0 0c2 2 2 2 2.12 5.62-0.0412 1.11-0.0825 2.23-0.125 3.38-0.99 0.33-1.98 0.66-3 1-0.33 0.66-0.66 1.32-1 2v-11c0.66-0.33 1.32-0.66 2-1z" fill="#56A42F"/>
<path transform="translate(504,442)" d="m0 0 4 2c0 3.11-0.456 5.94-1 9-0.99-0.33-1.98-0.66-3-1v-10z" fill="#56A62E"/>
<path transform="translate(519,390)" d="m0 0c-0.645 3.48-1.98 6.09-4 9h-2c0.282-1.31 0.576-2.63 0.875-3.94 0.162-0.731 0.325-1.46 0.492-2.21 0.898-2.62 1.95-2.85 4.63-2.85zm-7 9h1v6h-1v-6z" fill="#53A527"/>
<path transform="translate(459,1047)" d="m0 0c0.454 0.66 0.908 1.32 1.38 2 0.536 0.66 1.07 1.32 1.62 2h2v2h-2c0.33 1.65 0.66 3.3 1 5h-3c-0.363-1.46-0.715-2.92-1.06-4.38-0.296-1.22-0.296-1.22-0.598-2.46-0.34-2.16-0.34-2.16 0.66-4.16z" fill="#55A82A"/>
<path transform="translate(717,381)" d="m0 0h19c0.33 0.99 0.66 1.98 1 3-13.6-0.964-13.6-0.964-20-2v-1z" fill="#57A130"/>
<path transform="translate(989,271)" d="m0 0c5.79-0.207 10.4 0.408 16 2-0.33 0.99-0.66 1.98-1 3-3.27-0.801-6.51-1.67-9.75-2.56-0.985-0.269-1.97-0.539-2.98-0.816-0.748-0.205-1.5-0.41-2.27-0.621v-1z" fill="#55AA25"/>
<path transform="translate(1117,336)" d="m0 0c1.82 0.59 3.63 1.2 5.44 1.81 1.01 0.336 2.02 0.673 3.06 1.02 0.826 0.385 1.65 0.771 2.5 1.17 0.33 0.99 0.66 1.98 1 3-9.59-2.89-9.59-2.89-13-6 0.33-0.33 0.66-0.66 1-1z" fill="#56A42F"/>
<path transform="translate(541,330)" d="m0 0c0.99 0.33 1.98 0.66 3 1-1.98 3.63-3.96 7.26-6 11h-1c0.468-4.78 1.24-8.04 4-12z" fill="#55A82A"/>
<path transform="translate(953,257)" d="m0 0c2.48 0.99 2.48 0.99 5 2v2c1.18 0.217 1.18 0.217 2.38 0.438 2.62 0.562 2.62 0.562 4.62 1.56v2c-1.44-0.426-2.88-0.866-4.31-1.31-0.801-0.244-1.6-0.487-2.43-0.738-2.39-1-3.66-1.93-5.26-3.95v-2z" fill="#56A32F"/>
<path transform="translate(972,809)" d="m0 0h2c-0.309 1.79-0.622 3.58-0.938 5.38-0.174 0.998-0.348 2-0.527 3.02-0.535 2.6-0.535 2.6-1.54 4.6h-2c0.31-1.6 0.623-3.21 0.938-4.81 0.174-0.893 0.348-1.79 0.527-2.71 0.535-2.48 0.535-2.48 1.54-5.48z" fill="#56A62E"/>
<path transform="translate(795,778)" d="m0 0c0.66 0.33 1.32 0.66 2 1 0.633 2.72 0.633 2.72 1.12 6.06 0.168 1.1 0.335 2.21 0.508 3.35 0.121 0.855 0.242 1.71 0.367 2.59h-2c-0.528-1.98-1.05-3.96-1.56-5.94-0.435-1.65-0.435-1.65-0.879-3.34-0.184-0.898-0.369-1.8-0.559-2.72l1-1z" fill="#57A130"/>
<path transform="translate(1256,344)" d="m0 0 4 2c0.33 0.99 0.66 1.98 1 3-1.65 1.32-3.3 2.64-5 4v-9z" fill="#509F25"/>
<path transform="translate(979,783)" d="m0 0h1c-0.0873 1.61-0.196 3.21-0.312 4.81-0.058 0.893-0.116 1.79-0.176 2.71-0.575 2.79-1.33 3.72-3.51 5.48 0.479-4.71 0.968-8.67 3-13z" fill="#56A62E"/>
<path transform="translate(340,643)" d="m0 0v10h-2c-1.48-2.96-1.06-5.74-1-9 2-1 2-1 3-1z" fill="#579F30"/>
<path transform="translate(940,463)" d="m0 0c1.98 0.66 3.96 1.32 6 2 0 2 0 2-1.5 3.62-0.495 0.454-0.99 0.908-1.5 1.38 0.99 0.33 1.98 0.66 3 1h-2c-0.33 0.99-0.66 1.98-1 3-0.99-3.63-1.98-7.26-3-11z" fill="#56A52F"/>
</svg>
